<svg width="75" height="172" viewBox="0 0 75 172" fill="none" xmlns="http://www.w3.org/2000/svg">
<path d="M73.0465 170.757C54.9245 163.365 37.4348 153.552 23.9564 139.361C10.4781 125.17 1.31174 106.171 1.82098 86.6056C2.30502 67.9995 11.3927 50.4453 23.6005 36.3952C35.2778 22.9552 49.7232 12.2772 64.1615 1.83417" stroke="white" stroke-width="2.01681" stroke-miterlimit="10" stroke-linecap="round" stroke-dasharray="10.08 10.08"/>
<path d="M58.928 17.3203L58.9283 17.3204C59.0951 17.3854 59.2768 17.3563 59.4128 17.2569L59.4143 17.2559C59.487 17.2032 59.5478 17.1282 59.5861 17.0324C59.5862 17.0321 59.5863 17.0318 59.5864 17.0314L65.7847 1.19399C65.7848 1.19385 65.7848 1.19372 65.7849 1.19359C65.8473 1.03221 65.8235 0.849679 65.7228 0.712138L65.7221 0.711176C65.6216 0.57308 65.4549 0.494653 65.2829 0.505135C65.2827 0.505144 65.2826 0.505152 65.2825 0.50516L48.307 1.58503C48.3069 1.58504 48.3067 1.58505 48.3066 1.58506C48.0307 1.60346 47.8162 1.84596 47.8333 2.12274L58.928 17.3203ZM58.928 17.3203C58.6718 17.2206 58.5422 16.9281 58.6448 16.6664L58.645 16.666M58.928 17.3203L58.645 16.666M58.645 16.666L64.2678 2.29929L64.5563 1.5621M58.645 16.666L64.5563 1.5621M64.5563 1.5621L63.7663 1.61235M64.5563 1.5621L63.7663 1.61235M63.7663 1.61235L48.3701 2.5915M63.7663 1.61235L48.3701 2.5915M48.3701 2.5915C48.0891 2.60932 47.8503 2.39654 47.8333 2.1228L48.3701 2.5915Z" fill="white" stroke="white" stroke-width="1.0084"/>
</svg>
