<svg width="74" height="172" viewBox="0 0 74 172" fill="none" xmlns="http://www.w3.org/2000/svg">
<g opacity="0.69">
<path d="M72.2457 170.757C54.1237 163.365 36.634 153.552 23.1557 139.361C9.67735 125.17 0.510957 106.17 1.0202 86.6054C1.50423 67.9994 10.592 50.4451 22.7997 36.395C34.477 22.955 48.9224 12.277 63.3607 1.83398" stroke="white" stroke-width="2.01681" stroke-miterlimit="10" stroke-linecap="round" stroke-dasharray="10.08 10.08"/>
<path d="M57.9444 17.7902C57.4261 17.5885 57.171 17.0016 57.3747 16.4823L62.9975 2.11553L47.6012 3.09469C47.0446 3.12999 46.5636 2.70848 46.5293 2.15385C46.495 1.59822 46.9215 1.11822 47.4731 1.08192L64.4506 0.00191758C64.7935 -0.0192589 65.1262 0.136036 65.3289 0.414355C65.5326 0.692674 65.578 1.05671 65.454 1.37637L59.2543 17.2174C59.1807 17.4029 59.0597 17.5552 58.9094 17.6641C58.6402 17.8607 58.2782 17.9202 57.9444 17.7902Z" fill="white"/>
</g>
</svg>
