<svg width="223" height="210" viewBox="0 0 223 210" fill="none" xmlns="http://www.w3.org/2000/svg">
<g opacity="0.69">
<path d="M135.713 160.157C149.087 161.699 162.567 154.902 171.195 144.567C179.823 134.231 184.056 120.801 185.456 107.411C186.966 92.9713 185.23 77.769 177.809 65.2904C170.389 52.8117 156.594 43.5978 142.088 44.2071C128.878 44.7614 117.304 52.9045 107.094 61.3053C96.8845 69.706 86.6808 78.9561 73.9428 82.5002C61.9942 85.8239 47.0312 82.0967 41.365 71.4145" stroke="white" stroke-width="2.01681" stroke-miterlimit="10" stroke-linecap="round" stroke-dasharray="10.08 10.08"/>
<path d="M34.4646 78.9175C34.5351 79.0692 34.6788 79.1828 34.8562 79.2081C35.1288 79.2459 35.3843 79.0536 35.4225 78.7755L35.4226 78.7753L37.5277 63.4914L37.6357 62.7071L38.3007 63.1366L51.2603 71.5065L51.2603 71.5065C51.4966 71.6592 51.8091 71.5908 51.9587 71.3594C52.1079 71.1272 52.0393 70.81 51.8075 70.659C51.8074 70.6589 51.8072 70.6588 51.8071 70.6588L37.5184 61.4317C37.5183 61.4316 37.5181 61.4315 37.518 61.4315C37.3727 61.3381 37.1895 61.325 37.0329 61.3966C36.8774 61.4678 36.7676 61.6156 36.7436 61.7864C36.7436 61.7865 36.7436 61.7865 36.7436 61.7866L34.4235 78.634C34.4234 78.6346 34.4233 78.6351 34.4232 78.6357C34.4103 78.7379 34.4266 78.8337 34.4646 78.9175Z" fill="white" stroke="white" stroke-width="1.0084"/>
</g>
</svg>
