<svg width="161" height="215" viewBox="0 0 161 215" fill="none" xmlns="http://www.w3.org/2000/svg">
<g opacity="0.69">
<path d="M56.1577 203.227C74.2513 189.162 73.187 148.569 64.7823 135.782C56.3777 122.994 36.9112 116.71 25.2351 126.601C13.3728 136.649 16.9915 157.692 29.4854 166.943C41.9794 176.195 59.4891 175.634 74.1182 170.372C104.963 159.278 127.247 128.429 129.501 95.7267C131.699 63.8326 115.423 31.6716 89.2912 13.2694" stroke="white" stroke-width="2.01681" stroke-miterlimit="10" stroke-linecap="round" stroke-dasharray="10.08 10.08"/>
<path d="M94.6544 28.7302L94.6551 28.73C94.9098 28.628 95.0369 28.3339 94.9316 28.0728L94.9316 28.0727L89.1646 13.7626L88.8687 13.0283L89.6592 13.0706L105.065 13.8952L105.065 13.8952C105.346 13.9105 105.583 13.6955 105.597 13.4209C105.611 13.1446 105.394 12.9038 105.119 12.8877C105.119 12.8877 105.118 12.8877 105.118 12.8877L88.1345 11.9789C88.1343 11.9789 88.1341 11.9789 88.1338 11.9789C87.9605 11.9704 87.7945 12.0508 87.6957 12.1893C87.5961 12.329 87.574 12.5115 87.6383 12.6729C87.6384 12.673 87.6385 12.6732 87.6385 12.6734L93.9951 28.4479C93.9952 28.4483 93.9954 28.4487 93.9955 28.4491C94.0354 28.5457 94.0964 28.6189 94.1689 28.6701L94.1689 28.6701L94.1725 28.6727C94.3069 28.7695 94.488 28.7971 94.6544 28.7302Z" stroke="white" stroke-width="1.0084"/>
</g>
</svg>
