<svg width="148" height="138" viewBox="0 0 148 138" fill="none" xmlns="http://www.w3.org/2000/svg">
<g opacity="0.69">
<path d="M33.0038 1.9248C21.2368 28.8599 31.6565 51.7119 49.1086 75.3637C66.0812 98.3651 90.2036 114.831 114.043 130.669" stroke="white" stroke-width="2.01681" stroke-miterlimit="10" stroke-linecap="round" stroke-dasharray="10.08 10.08"/>
<path d="M108.247 115.381L108.247 115.381C107.994 115.491 107.876 115.788 107.988 116.045L107.988 116.046L114.135 130.195L114.451 130.921L113.66 130.9L98.2369 130.488L98.2369 130.488C97.9549 130.481 97.7243 130.702 97.7177 130.977L97.7177 130.978C97.7106 131.254 97.934 131.489 98.2109 131.497C98.2109 131.497 98.211 131.497 98.211 131.497L115.213 131.952C115.214 131.952 115.214 131.952 115.214 131.952C115.386 131.956 115.55 131.872 115.647 131.729C115.742 131.588 115.759 131.405 115.69 131.245C115.69 131.245 115.69 131.245 115.69 131.245L108.913 115.647C108.913 115.646 108.913 115.646 108.913 115.645C108.871 115.551 108.807 115.478 108.731 115.426L108.73 115.426C108.592 115.332 108.411 115.31 108.247 115.381Z" stroke="white" stroke-width="1.0084"/>
</g>
</svg>
