<svg width="253" height="181" viewBox="0 0 253 181" fill="none" xmlns="http://www.w3.org/2000/svg">
<g opacity="0.69">
<path d="M246.079 13.4952C241.338 36.8017 221.13 44.365 198.308 51.0587C175.486 57.7525 150.873 59.7301 130.204 71.497C106.618 84.9239 91.6071 109.058 73.6212 129.384C56.1744 149.099 31.4892 166.759 5.74731 162.876" stroke="white" stroke-width="2.01681" stroke-miterlimit="10" stroke-linecap="round" stroke-dasharray="10.08 10.08"/>
<path d="M4.15177 162.142L19.6873 155.217C19.6874 155.217 19.6875 155.217 19.6876 155.217C19.9411 155.105 20.2441 155.221 20.3565 155.473C20.469 155.725 20.3553 156.024 20.0992 156.138L20.0988 156.138L6.00792 162.419L5.28484 162.741L5.88267 163.26L17.5329 173.373L17.5331 173.374C17.7452 173.557 17.7667 173.876 17.5859 174.085L4.15177 162.142ZM4.15177 162.142C4.1516 162.142 4.15143 162.142 4.15126 162.142C3.99324 162.213 3.88205 162.36 3.85687 162.529C3.83175 162.697 3.89561 162.871 4.02553 162.984M4.15177 162.142L4.02553 162.984M4.02553 162.984C4.02569 162.985 4.02585 162.985 4.02601 162.985L16.8675 174.133C16.8679 174.133 16.8683 174.134 16.8686 174.134C16.9484 174.202 17.0366 174.24 17.1249 174.253L17.1273 174.253C17.2952 174.278 17.4683 174.22 17.5858 174.085L4.02553 162.984Z" stroke="white" stroke-width="1.0084"/>
</g>
</svg>
