<svg width="249" height="269" viewBox="0 0 249 269" fill="none" xmlns="http://www.w3.org/2000/svg">
<g opacity="0.69">
<path d="M242.339 57.5076C226.49 123.255 131.724 137.202 116.538 135.318C101.352 133.434 87.1078 118.753 90.8166 103.907C94.5838 88.824 115.058 82.765 128.881 89.8805C142.703 96.996 149.942 112.949 151.691 128.397C155.38 160.968 137.563 194.596 109.228 211.077C81.5932 227.152 45.55 226.774 17.4899 211.472" stroke="white" stroke-width="2.01681" stroke-miterlimit="10" stroke-linecap="round" stroke-dasharray="10.08 10.08"/>
<path d="M33.7284 209.447L33.7284 209.448C33.7496 209.721 33.542 209.965 33.2613 209.986L33.2612 209.986L17.876 211.141L17.0865 211.2L17.474 211.891L25.0254 225.344L25.0256 225.344C25.1634 225.589 25.0754 225.897 24.8354 226.031C24.5939 226.166 24.2819 226.078 24.1458 225.838C24.1456 225.838 24.1455 225.837 24.1453 225.837L15.8207 211.006C15.8205 211.006 15.8204 211.005 15.8203 211.005C15.7361 210.854 15.7348 210.669 15.8153 210.519C15.8966 210.368 16.0505 210.268 16.2237 210.254C16.2239 210.254 16.2241 210.254 16.2243 210.254L33.1836 208.98C33.184 208.98 33.1844 208.98 33.1848 208.98C33.2891 208.973 33.3818 208.996 33.4597 209.038L33.4597 209.038L33.4637 209.04C33.6099 209.118 33.7148 209.268 33.7284 209.447Z" stroke="white" stroke-width="1.0084"/>
</g>
</svg>
