<svg width="213" height="199" viewBox="0 0 213 199" fill="none" xmlns="http://www.w3.org/2000/svg">
<g opacity="0.69">
<path d="M103.686 28.9831C112.257 38.7134 127.759 34.6608 140.598 38.7135C153.436 42.7663 164.243 51.7949 172.641 62.3175C181.698 73.6649 188.431 87.4047 188.909 101.915C189.388 116.425 182.737 131.623 170.192 138.93C158.767 145.586 144.629 144.967 131.501 143.397C118.373 141.826 104.792 139.537 92.1529 143.419C80.2976 147.062 78.4758 160.58 70.4085 169.152" stroke="white" stroke-width="2.01681" stroke-miterlimit="10" stroke-linecap="round" stroke-dasharray="10.08 10.08"/>
<path d="M60.9342 165.252C60.9744 165.09 61.0938 164.951 61.2631 164.892C61.5234 164.803 61.811 164.943 61.9016 165.209L61.9017 165.209L66.8885 179.809L67.1444 180.558L67.715 180.009L78.8365 169.317L78.8365 169.317C79.0393 169.122 79.3592 169.13 79.5502 169.328C79.741 169.528 79.7343 169.852 79.5356 170.045C79.5355 170.045 79.5354 170.045 79.5352 170.045L67.2729 181.832C67.2728 181.832 67.2727 181.833 67.2726 181.833C67.1478 181.952 66.9705 182 66.8031 181.96C66.6369 181.919 66.5008 181.795 66.4447 181.632C66.4446 181.632 66.4446 181.632 66.4446 181.632L60.948 165.538C60.9478 165.538 60.9476 165.537 60.9475 165.537C60.9153 165.439 60.913 165.342 60.9342 165.252Z" stroke="white" stroke-width="1.0084"/>
</g>
</svg>
