<svg width="219" height="85" viewBox="0 0 219 85" fill="none" xmlns="http://www.w3.org/2000/svg">
<path d="M5.36038 3.05529C2.0852 5.66324 -0.0528164 9.71327 0.000992716 13.8996C0.16242 25.7304 0.402767 37.5613 0.600067 49.3921C0.750733 58.2885 4.43128 66.8908 10.5081 73.3874C11.9897 74.973 13.7008 76.5119 15.6738 77.9396C27.8095 86.7249 40.8421 84.7806 43.2169 84.3788C40.8672 82.4058 38.1588 79.744 35.6047 76.2464C35.4253 75.9989 35.2495 75.7514 35.0738 75.5075C30.2166 68.5733 27.2786 60.2938 27.1064 51.8279C26.8446 39.1074 26.9414 26.3869 26.676 13.6664C26.5899 9.55543 24.7639 5.62737 21.539 3.08041C18.9669 1.0536 15.7168 -0.0297605 12.3843 0.239285C9.78707 0.447347 7.35849 1.46255 5.35679 3.05529H5.36038Z" fill="#B9FD50"/>
<path d="M42.3955 56.8354C43.1381 56.2937 44.1569 55.4148 45.068 54.0947C45.6133 53.3019 45.9829 52.3656 46.277 51.6553C46.7362 50.5505 46.9945 48.8967 46.9945 47.7093C47.016 36.0363 46.9621 24.984 46.98 13.311C46.9872 9.00983 48.9746 4.89882 52.4793 2.40566C54.3734 1.05685 56.6047 0.213837 58.9759 0.0344737C61.6771 -0.166414 64.3173 0.518756 66.5773 1.87833C70.6883 4.34996 73.0631 8.91656 72.9985 13.7163C72.9304 18.778 72.0084 26.7919 67.4741 35.1862C63.747 42.0845 59.0153 46.5901 55.8263 49.1658C54.09 50.6007 51.9018 52.1863 49.2472 53.6893C46.754 55.0955 44.4151 56.1071 42.3955 56.8425V56.8354Z" fill="white"/>
<path d="M30.418 59.3288C34.4716 59.6876 40.3762 59.7378 47.2172 58.1163C52.2107 56.9325 56.3037 55.1855 59.3996 53.5713C59.9986 53.2592 60.5618 52.8861 61.1179 52.5058C63.568 50.8306 66.6171 50.644 68.8699 52.018C68.9668 52.0754 69.0601 52.1364 69.1498 52.1973C71.1586 53.582 72.0411 56.1111 71.4779 58.4858C70.8788 61.0328 69.7524 64.3654 67.5678 67.845C64.6764 72.4511 61.1573 75.346 58.7323 76.9962C57.9718 77.5127 57.1324 77.893 56.2427 78.119C55.5289 78.3019 54.7074 78.4562 53.7962 78.5315C53.1182 78.5889 52.4797 78.5961 51.8914 78.571C50.3596 78.5028 48.8745 78.0652 47.54 77.3154C44.9859 75.8805 41.8829 73.7927 38.7907 70.7902C34.4823 66.6038 31.9031 62.3063 30.4216 59.3288H30.418Z" fill="#B9FD50"/>
<path d="M65.6471 10.2238C65.6471 7.15284 63.1577 4.66357 60.0865 4.66357C57.0156 4.66357 54.5264 7.15284 54.5264 10.2238C54.5264 13.295 57.0156 15.7841 60.0865 15.7841C63.1577 15.7841 65.6471 13.2949 65.6471 10.2238Z" fill="#080716"/>
<path d="M116.272 59.5024C108.636 59.5024 103.06 54.9307 103.06 46.3401V22.3264H109.892V46.742C109.892 50.3591 112.605 53.1724 116.222 53.1724C119.789 53.1724 122.652 50.3591 122.652 46.742V22.3264H129.485V46.3401C129.485 54.9307 123.858 59.5024 116.272 59.5024ZM132.017 59V29.6109H138.849V59H132.017ZM131.163 22.4269C131.163 19.8648 132.821 18.1567 135.433 18.1567C138.095 18.1567 139.703 19.8648 139.703 22.4269C139.703 24.989 138.095 26.6469 135.433 26.6469C132.67 26.6469 131.163 24.989 131.163 22.4269Z" fill="#B9FD50"/>
<path d="M155.823 59.6029C146.579 59.6029 140.299 52.871 140.299 44.3808C140.299 35.7902 146.981 29.0081 155.572 29.0081C164.313 29.0081 170.693 35.4385 170.693 44.1296V46.6917H146.78C147.734 50.8615 151 53.6246 155.823 53.6246C159.641 53.6246 162.555 51.615 163.961 48.4501L169.538 51.6653C166.976 56.4379 162.454 59.6029 155.823 59.6029ZM155.572 34.9863C151.502 34.9863 148.337 37.3978 147.132 41.0149H163.811C162.806 37.0461 159.792 34.9863 155.572 34.9863ZM179.909 59L168.706 29.6109H175.79L183.375 50.3089L190.811 29.6109H197.794L186.741 59H179.909ZM198.78 59V29.6109H205.512V33.9816C206.868 31.0678 209.38 29.6109 213.047 29.6109C215.208 29.6109 216.866 30.1133 218.222 30.8669L215.66 37.2973C214.655 36.6442 213.55 36.1418 211.591 36.1418C207.622 36.1418 205.562 38.2518 205.562 43.3258V59H198.78Z" fill="white"/>
</svg>
