<svg width="27" height="26" viewBox="0 0 27 26" fill="none" xmlns="http://www.w3.org/2000/svg">
<path d="M25.5 13C25.5 19.6274 20.1274 25 13.5 25C6.87258 25 1.5 19.6274 1.5 13C1.5 6.37258 6.87258 1 13.5 1M20.1667 13C20.1667 16.6819 17.1819 19.6667 13.5 19.6667C9.8181 19.6667 6.83333 16.6819 6.83333 13C6.83333 9.3181 9.8181 6.33333 13.5 6.33333M17.1772 9.46883L22.4558 10.0232L25.3172 6.01723L21.8835 4.87266L20.739 1.43895L16.733 4.30038L17.1772 9.46883ZM17.1772 9.46883L13.5 12.9999" stroke="black" stroke-width="2" stroke-linecap="round" stroke-linejoin="round"/>
</svg>
