<svg width="86" height="102" viewBox="0 0 86 102" fill="none" xmlns="http://www.w3.org/2000/svg">
<rect width="86" height="102" fill="#201E38"/>
<path d="M3.58329 3.58328H82.4167L81 99H3.58329V3.58328ZM0 102H86V0H0V102ZM57.9733 45.3726C55.1424 45.3726 54.175 46.8059 54.175 47.9884C54.175 49.2783 54.8199 50.1742 58.6183 52.1451C64.2441 54.8685 66 57.4842 66 61.3185C66 67.0517 61.6283 70.1334 55.7158 70.1334C52.5983 70.1334 49.9107 69.4884 48.3699 68.5927C48.1191 68.4852 48.0833 68.306 48.0833 68.0193V62.7517C48.0833 62.3935 48.2624 62.2858 48.5134 62.4651C50.7709 63.9344 53.3508 64.5793 55.7158 64.5793C58.5467 64.5793 59.7291 63.3968 59.7291 61.7842C59.7291 60.4943 58.9049 59.3476 55.2857 57.4842C50.1973 55.0476 48.0833 52.5751 48.0833 48.4543C48.0833 43.8317 51.7025 39.9976 57.9733 39.9976C61.0549 39.9976 63.2049 40.4635 64.3874 41.0009C64.6741 41.1801 64.7457 41.4667 64.7457 41.7175V46.6266C64.7457 46.9132 64.5666 47.0925 64.2081 46.9849C62.6315 45.9818 60.3024 45.3726 57.9733 45.3726ZM27.1565 49.6368C27.9807 49.7084 28.6258 49.7084 30.0591 49.7084C34.2518 49.7084 38.1933 48.2393 38.1933 42.5419C38.1933 37.9911 35.3624 35.6976 30.5967 35.6976C29.1634 35.6976 27.8016 35.7693 27.1565 35.8051V49.6368ZM20.7783 30.6092C20.7783 30.3584 21.2801 30.1791 21.5666 30.1791C23.86 30.0717 27.2642 30 30.8116 30C40.7374 30 44.6073 35.4467 44.6073 42.3984C44.6073 51.5 38.014 55.4059 29.9158 55.4059C28.5541 55.4059 28.0884 55.3342 27.1207 55.3342V69.0943C27.1207 69.3809 27.0132 69.5242 26.6908 69.5242H21.2083C20.9217 69.5242 20.7782 69.4167 20.7782 69.0943L20.7783 30.6092Z" fill="#31C5F0"/>
</svg>
