<svg width="86" height="102" viewBox="0 0 86 102" fill="none" xmlns="http://www.w3.org/2000/svg">
<rect width="86" height="102" fill="#330000"/>
<path d="M3.58329 3.58328H82.4167L81 99H3.58329V3.58328ZM0 102H86V0H0V102ZM57.9733 45.3726C55.1424 45.3726 54.175 46.8059 54.175 47.9884C54.175 49.2783 54.8199 50.1742 58.6183 52.1451C64.2441 54.8685 66 57.4842 66 61.3185C66 67.0517 61.6283 70.1334 55.7158 70.1334C52.5983 70.1334 49.9107 69.4884 48.3699 68.5927C48.1191 68.4852 48.0833 68.306 48.0833 68.0193V62.7517C48.0833 62.3935 48.2624 62.2858 48.5134 62.4651C50.7709 63.9344 53.3508 64.5793 55.7158 64.5793C58.5467 64.5793 59.7291 63.3968 59.7291 61.7842C59.7291 60.4943 58.9049 59.3476 55.2857 57.4842C50.1973 55.0476 48.0833 52.5751 48.0833 48.4543C48.0833 43.8317 51.7025 39.9976 57.9733 39.9976C61.0549 39.9976 63.2049 40.4635 64.3874 41.0009C64.6741 41.1801 64.7457 41.4667 64.7457 41.7175V46.6266C64.7457 46.9132 64.5666 47.0925 64.2081 46.9849C62.6315 45.9818 60.3024 45.3726 57.9733 45.3726ZM27.1565 49.6368C27.9807 49.7084 28.6258 49.7084 30.0591 49.7084C34.2518 49.7084 38.1933 48.2393 38.1933 42.5419C38.1933 37.9911 35.3624 35.6976 30.5967 35.6976C29.1634 35.6976 27.8016 35.7693 27.1565 35.8051V49.6368ZM20.7783 30.6092C20.7783 30.3584 21.2801 30.1791 21.5666 30.1791C23.86 30.0717 27.2642 30 30.8116 30C40.7374 30 44.6073 35.4467 44.6073 42.3984C44.6073 51.5 38.014 55.4059 29.9158 55.4059C28.5541 55.4059 28.0884 55.3342 27.1207 55.3342V69.0943C27.1207 69.3809 27.0132 69.5242 26.6908 69.5242H21.2083C20.9217 69.5242 20.7782 69.4167 20.7782 69.0943L20.7783 30.6092Z" fill="#330000"/>
<path d="M43.1007 62.426H30.2329L27.6147 70.7677C27.5421 71.0776 27.2568 71.297 26.9463 71.2816H20.4287C20.057 71.2816 19.927 71.0722 20.0387 70.6532L31.1798 37.744C31.2913 37.4011 31.4028 37.0108 31.514 36.5728C31.66 35.8103 31.7344 35.0357 31.7371 34.259C31.705 34.0294 31.9067 33.8267 32.1268 33.8588H40.9841C41.2436 33.8588 41.3919 33.9541 41.4296 34.1445L54.075 70.7104C54.1862 71.0915 54.075 71.2819 53.7408 71.2816H46.4989C46.245 71.3107 46.0024 71.1366 45.9419 70.8818L43.1007 62.426ZM32.2383 55.2271H41.0399C39.5938 50.2856 37.9618 45.4091 36.6391 40.4294C35.212 45.4177 33.655 50.3859 32.2383 55.2271Z" fill="#FF9A00"/>
<path d="M61.5969 39.9143C61.0287 39.9377 60.4622 39.8378 59.934 39.6213C59.4061 39.4048 58.9287 39.0762 58.533 38.6575C58.1386 38.2203 57.8319 37.7078 57.6312 37.1488C57.4304 36.5901 57.3393 35.996 57.3631 35.4008C57.3429 34.8115 57.444 34.2246 57.6599 33.6782C57.8761 33.1318 58.2021 32.6383 58.6167 32.2298C59.0271 31.8256 59.5117 31.509 60.0426 31.2981C60.5731 31.0873 61.1393 30.9865 61.7081 31.0015C63.0453 31.0015 64.0943 31.4109 64.8556 32.2298C65.24 32.6554 65.5386 33.1545 65.7346 33.6986C65.9304 34.2427 66.0199 34.8213 65.9974 35.4008C66.0208 35.9981 65.9268 36.5945 65.721 37.1538C65.5155 37.7132 65.202 38.2245 64.7999 38.6575C64.3796 39.0824 63.8778 39.4134 63.3268 39.6299C62.7755 39.8461 62.1865 39.9431 61.5969 39.9143ZM57.753 70.7096V43.3996C57.753 43.0568 57.901 42.8854 58.1988 42.8854H65.0508C65.3473 42.8854 65.4959 43.0568 65.4962 43.3996V70.7096C65.4962 71.091 65.3476 71.2814 65.0508 71.2811H58.2545C57.9203 71.2811 57.753 71.0907 57.753 70.7096Z" fill="#FF9A00"/>
</svg>
