<svg width="86" height="102" viewBox="0 0 86 102" fill="none" xmlns="http://www.w3.org/2000/svg">
<path fill-rule="evenodd" clip-rule="evenodd" d="M18.7636 16.427L43 14L67.2363 16.427L85.9997 40.2853L43 87.714L0 40.2853L18.7636 16.427Z" fill="#FDB300"/>
<path d="M17.4169 40.2871L42.9997 87.7161L0 40.2871H17.4169ZM68.5832 40.2871L42.9997 87.7161L86 40.2871" fill="#EA6C00"/>
<path fill-rule="evenodd" clip-rule="evenodd" d="M17.4199 40.2871H68.5853L43.0028 87.7161" fill="#FDAD00"/>
<path d="M43.0028 14L18.7664 16.4266L17.4199 40.285L43.0028 14ZM43.0028 14L67.2394 16.4266L68.5859 40.285" fill="#FDD231"/>
<path d="M86 40.2862L67.2366 16.4277L68.5832 40.2862H86ZM0 40.2862L18.7634 16.4277L17.4169 40.2862" fill="#FDAD00"/>
<path fill-rule="evenodd" clip-rule="evenodd" d="M43.0028 14L17.4199 40.285H68.5853" fill="#FEEEB7"/>
</svg>
