<svg width="86" height="102" viewBox="0 0 86 102" fill="none" xmlns="http://www.w3.org/2000/svg">
<rect width="86" height="102" fill="#007ACC"/>
<path d="M17.0286 55.1429L17.0001 58.8248L22.8512 58.8248H28.7023V75.4505L28.7023 92.0762H32.8409H36.9794V75.4505V58.8248H42.8305H48.6816V55.2143C48.6816 53.2163 48.6388 51.5466 48.5817 51.5038C48.5389 51.4467 41.4177 51.4182 32.7838 51.4324L17.0714 51.4753L17.0286 55.1429Z" fill="white"/>
<path d="M69.6928 51.3704C71.9761 51.9412 73.7172 52.9544 75.3156 54.6099C76.1433 55.4947 77.3706 57.1073 77.4705 57.4926C77.499 57.6068 73.5888 60.2326 71.2198 61.7025C71.1342 61.7596 70.7917 61.3886 70.4063 60.8177C69.2504 59.1338 68.0374 58.4059 66.1821 58.2775C63.4564 58.092 61.701 59.5191 61.7153 61.9023C61.7153 62.6016 61.8152 63.0155 62.1006 63.5863C62.7 64.8279 63.8131 65.57 67.3095 67.0827C73.7457 69.8513 76.5 71.6779 78.2126 74.2753C80.1249 77.1723 80.553 81.7961 79.2543 85.2354C77.8272 88.9744 74.288 91.5146 69.3075 92.3566C67.7662 92.6277 64.1128 92.5849 62.4574 92.2852C58.8469 91.643 55.4218 89.8592 53.3097 87.5187C52.482 86.6054 50.8694 84.2221 50.9693 84.0509C51.0121 83.9938 51.3831 83.7655 51.797 83.5229C52.1966 83.2945 53.7093 82.424 55.1364 81.5963L57.7194 80.0978L58.2617 80.897C59.0181 82.0529 60.6735 83.637 61.6725 84.1651C64.541 85.6778 68.4798 85.4637 70.4206 83.7226C71.2483 82.9663 71.5908 82.1814 71.5908 81.0254C71.5908 79.9837 71.4624 79.527 70.9201 78.7421C70.2208 77.7431 68.7937 76.9011 64.7408 75.1458C60.1027 73.1479 58.1048 71.9063 56.2781 69.9369C55.222 68.7952 54.2231 66.9685 53.8092 65.4415C53.4667 64.1714 53.3811 60.989 53.6522 59.7046C54.6084 55.2235 57.9906 52.0982 62.8713 51.1706C64.4553 50.8709 68.1373 50.985 69.6928 51.3704Z" fill="white"/>
</svg>
