<svg width="86" height="102" viewBox="0 0 86 102" fill="none" xmlns="http://www.w3.org/2000/svg">
<path d="M66.3379 32.6312L67.1442 31.4111L68.5524 32.2657L69.176 32.7119C70.681 33.8729 73.8469 36.8399 74.5295 41.7635C75.7282 41.5485 76.9376 41.441 78.147 41.441C81.0173 41.441 82.9469 42.1075 84.0435 42.6612L84.6079 42.9675L84.9734 43.2094L86 44.0479L85.6452 45.123C85.0938 46.5967 84.2323 47.9348 83.1189 49.0468C81.5602 50.6539 78.8189 52.5513 74.4704 52.7986L73.5137 52.8255H72.7181C70.7294 58.0769 68.0579 63.9949 63.5697 69.3055C60.9067 72.4612 57.7478 75.1626 54.2171 77.3037C49.9842 79.815 45.3488 81.5753 40.5159 82.5067C37.0544 83.1786 33.5391 83.5119 30.0184 83.5011C22.2245 83.5011 15.3444 81.9531 11.1142 79.2441C7.33548 76.8306 4.43293 72.8907 2.48177 67.5425C0.774245 62.6555 -0.0643912 57.5072 0.00385372 52.331C-0.00499016 51.6673 0.224451 51.0225 0.650517 50.5136C1.07658 50.0047 1.67102 49.6654 2.3259 49.5574L2.6914 49.5305H59.3449L59.8394 49.4929L60.6403 49.4069C62.0163 49.2242 64.1126 48.8157 65.5854 47.9556C63.8224 45.037 63.3225 41.6238 64.1449 37.9902C64.4893 36.4746 65.0315 35.0107 65.7574 33.6364L66.3379 32.6312ZM15.5325 39.3394L15.7475 39.377C15.8457 39.4137 15.9341 39.4726 16.0059 39.549C16.0777 39.6255 16.1309 39.7174 16.1614 39.8177L16.1936 40.0327V47.101L16.1614 47.3214C16.1303 47.4223 16.0763 47.5146 16.0036 47.591C15.9308 47.6675 15.8413 47.7261 15.7421 47.7621L15.5325 47.7944H7.94287C7.80141 47.7925 7.66423 47.7456 7.55117 47.6606C7.43811 47.5756 7.35504 47.4568 7.31398 47.3214L7.27636 47.1064V40.0274L7.31398 39.8124C7.34431 39.7105 7.39801 39.6171 7.47079 39.5397C7.54358 39.4622 7.63345 39.4028 7.73324 39.3662L7.94287 39.334L15.5325 39.3394ZM25.9978 39.3394L26.2074 39.377C26.3066 39.413 26.3961 39.4716 26.4689 39.5481C26.5416 39.6246 26.5956 39.7169 26.6267 39.8177L26.659 40.0327V47.101L26.6213 47.3214C26.5903 47.4223 26.5363 47.5146 26.4635 47.591C26.3908 47.6675 26.3013 47.7261 26.2021 47.7621L25.9924 47.7944H18.4028C18.2616 47.7917 18.1248 47.7445 18.0119 47.6596C17.899 47.5747 17.8157 47.4563 17.7739 47.3214L17.7363 47.1117V40.0327C17.7351 39.8889 17.7784 39.7482 17.8602 39.6299C17.9419 39.5116 18.0582 39.4214 18.1932 39.3716L18.4028 39.334L25.9978 39.3394ZM36.619 39.3394L36.8286 39.377C36.9268 39.4137 37.0153 39.4726 37.087 39.549C37.1588 39.6255 37.212 39.7174 37.2425 39.8177L37.2801 40.0327V47.101L37.2425 47.3214C37.2115 47.4223 37.1574 47.5146 37.0847 47.591C37.0119 47.6675 36.9225 47.7261 36.8233 47.7621L36.6136 47.7944H29.024C28.8825 47.7925 28.7454 47.7456 28.6323 47.6606C28.5192 47.5756 28.4362 47.4568 28.3951 47.3214L28.3629 47.1064V40.0274L28.3951 39.8124C28.4254 39.7105 28.4791 39.6171 28.5519 39.5397C28.6247 39.4622 28.7146 39.4028 28.8144 39.3662L29.024 39.334L36.619 39.3394ZM47.1112 39.3394L47.3208 39.377C47.42 39.413 47.5095 39.4716 47.5823 39.5481C47.655 39.6246 47.709 39.7169 47.7401 39.8177L47.7777 40.0327V47.101C47.7788 47.2448 47.7356 47.3855 47.6538 47.5038C47.572 47.6221 47.4558 47.7123 47.3208 47.7621L47.1058 47.7944H39.5216C39.3801 47.7925 39.2429 47.7456 39.1299 47.6606C39.0168 47.5756 38.9337 47.4568 38.8927 47.3214L38.8604 47.1064V40.0274L38.8927 39.8124C38.923 39.7105 38.9767 39.6171 39.0495 39.5397C39.1223 39.4622 39.2121 39.4028 39.3119 39.3662L39.5269 39.334H47.1166L47.1112 39.3394ZM57.7001 39.3394L57.9098 39.377C58.009 39.413 58.0984 39.4716 58.1712 39.5481C58.2439 39.6246 58.298 39.7169 58.329 39.8177L58.3613 40.0327V47.101C58.3624 47.2448 58.3191 47.3855 58.2374 47.5038C58.1556 47.6221 58.0393 47.7123 57.9044 47.7621L57.6948 47.7944H50.1051C49.9637 47.7925 49.8265 47.7456 49.7134 47.6606C49.6004 47.5756 49.5173 47.4568 49.4762 47.3214L49.444 47.1064V40.0274L49.4762 39.8124C49.5066 39.7105 49.5603 39.6171 49.633 39.5397C49.7058 39.4622 49.7957 39.4028 49.8955 39.3662L50.1105 39.334H57.6948L57.7001 39.3394ZM25.9871 29.1697L26.2021 29.2073C26.2997 29.2435 26.3877 29.3016 26.4595 29.377C26.5312 29.4525 26.5847 29.5434 26.6159 29.6427L26.6536 29.8631V36.9313C26.6547 37.0751 26.6115 37.2158 26.5297 37.3341C26.4479 37.4525 26.3316 37.5427 26.1967 37.5925L25.9871 37.6301H18.4028C18.2602 37.6266 18.1224 37.5779 18.0093 37.4909C17.8963 37.404 17.8138 37.2833 17.7739 37.1463L17.7363 36.9313V29.8631C17.7363 29.7202 17.78 29.5807 17.8617 29.4634C17.9434 29.3462 18.0591 29.2568 18.1932 29.2073L18.4028 29.1697H25.9871ZM36.6082 29.1697L36.8233 29.2073C36.9209 29.2435 37.0089 29.3016 37.0807 29.377C37.1524 29.4525 37.2059 29.5434 37.2371 29.6427L37.2748 29.8631V36.9313C37.2759 37.0751 37.2326 37.2158 37.1509 37.3341C37.0691 37.4525 36.9528 37.5427 36.8179 37.5925L36.6082 37.6301H29.024C28.8814 37.6266 28.7436 37.5779 28.6305 37.4909C28.5175 37.404 28.435 37.2833 28.3951 37.1463L28.3629 36.9313V29.8631L28.3951 29.6481C28.4262 29.5472 28.4802 29.4549 28.5529 29.3784C28.6257 29.3019 28.7152 29.2434 28.8144 29.2073L29.024 29.1697H36.6082ZM47.1058 29.1697C47.3961 29.1697 47.6433 29.3686 47.7347 29.6427L47.7723 29.8631V36.9313C47.7735 37.0751 47.7302 37.2158 47.6484 37.3341C47.5667 37.4525 47.4504 37.5427 47.3154 37.5925L47.1004 37.6301H39.5216C39.379 37.6266 39.2411 37.5779 39.1281 37.4909C39.015 37.404 38.9326 37.2833 38.8927 37.1463L38.8604 36.9313V29.8631L38.8927 29.6481C38.9237 29.5472 38.9777 29.4549 39.0505 29.3784C39.1232 29.3019 39.2127 29.2434 39.3119 29.2073L39.5269 29.1697H47.1166H47.1058ZM47.1058 19C47.3961 19 47.6433 19.1989 47.7347 19.473L47.7723 19.688V26.7616C47.7735 26.9055 47.7302 27.0461 47.6484 27.1645C47.5667 27.2828 47.4504 27.373 47.3154 27.4228L47.1004 27.455H39.5216C39.3801 27.4531 39.2429 27.4063 39.1299 27.3212C39.0168 27.2362 38.9337 27.1174 38.8927 26.982L38.8604 26.767V19.688L38.8927 19.473C38.9237 19.3721 38.9777 19.2798 39.0505 19.2033C39.1232 19.1269 39.2127 19.0683 39.3119 19.0323L39.5216 19H47.1112H47.1058Z" fill="#2396ED"/>
</svg>
