<svg width="86" height="102" viewBox="0 0 86 102" fill="none" xmlns="http://www.w3.org/2000/svg">
<path d="M85.6483 56.46C88.6578 32.9003 72.0198 11.3611 48.503 8.35169C24.9862 5.34223 3.36114 21.9802 0.351687 45.497C-2.65777 69.0138 13.9802 90.5959 37.497 93.6483C61.0567 96.6578 82.5959 80.0198 85.6483 56.46Z" fill="#FF6C37"/>
<path d="M58.5205 35.6066L40.3778 53.7494L35.2617 48.6333C53.1035 30.7915 54.8662 32.3392 58.5205 35.6066Z" fill="white"/>
<path d="M40.3781 54.1786C40.2491 54.1786 40.1631 54.1356 40.0771 54.0496L34.918 48.9335C34.7461 48.7616 34.7461 48.5036 34.918 48.3317C53.0608 30.1889 54.9524 31.9086 58.7787 35.348C58.8647 35.434 58.9077 35.52 58.9077 35.6489C58.9077 35.7779 58.8647 35.8639 58.7787 35.9499L40.636 54.0496C40.593 54.1356 40.464 54.1786 40.3781 54.1786ZM35.8639 48.6326L40.3781 53.1468L57.8759 35.6489C54.6945 32.8115 52.5449 31.9516 35.8639 48.6326Z" fill="#FF6C37"/>
<path d="M45.5789 58.9501L40.6348 54.006L58.7775 35.8633C63.6356 40.7644 56.3699 48.718 45.5789 58.9501Z" fill="white"/>
<path d="M45.5791 59.3822C45.4501 59.3822 45.3641 59.3392 45.2781 59.2533L40.334 54.3091C40.248 54.2232 40.248 54.1372 40.248 54.0082C40.248 53.8792 40.291 53.7932 40.377 53.7073L58.5198 35.5645C58.6917 35.3926 58.9497 35.3926 59.1216 35.5645C60.2394 36.5963 60.8413 38.0581 60.7983 39.5628C60.7124 44.3349 55.2953 50.3968 45.923 59.2533C45.794 59.3392 45.6651 59.3822 45.5791 59.3822ZM41.2369 54.0082C43.9884 56.8027 45.1492 57.9205 45.5791 58.3504C52.8018 51.4717 59.8095 44.4209 59.8525 39.5628C59.8955 38.445 59.4656 37.3272 58.7347 36.4674L41.2369 54.0082Z" fill="#FF6C37"/>
<path d="M35.3458 48.7617L39.0002 52.4161C39.0862 52.502 39.0862 52.588 39.0002 52.674C38.9572 52.717 38.9572 52.717 38.9142 52.717L31.3476 54.3507C30.9606 54.3937 30.6167 54.1357 30.5307 53.7488C30.4877 53.5339 30.5737 53.3189 30.7027 53.1899L35.0879 48.8047C35.1739 48.7187 35.3029 48.6757 35.3458 48.7617Z" fill="white"/>
<path d="M31.2213 54.7819C30.5764 54.7819 30.1035 54.266 30.1035 53.6211C30.1035 53.3201 30.2325 53.0192 30.4475 52.8042L34.8327 48.419C35.0906 48.2041 35.4346 48.2041 35.6925 48.419L39.3469 52.0734C39.6048 52.2883 39.6048 52.6753 39.3469 52.9332C39.2609 53.0192 39.1749 53.0622 39.0459 53.1052L31.4793 54.7389C31.3933 54.7389 31.3073 54.7819 31.2213 54.7819ZM35.2196 49.2359L31.0064 53.4491C30.9204 53.5351 30.8774 53.6641 30.9634 53.7931C31.0064 53.922 31.1353 53.965 31.2643 53.922L38.358 52.3743L35.2196 49.2359Z" fill="#FF6C37"/>
<path d="M68.1071 25.5451C65.3556 22.8796 60.9274 22.9656 58.2619 25.7601C55.5964 28.5546 55.6824 32.9398 58.4769 35.6053C60.7554 37.7979 64.1948 38.1848 66.9033 36.5511L62.0022 31.65L68.1071 25.5451Z" fill="white"/>
<path d="M63.2912 37.971C59.2069 37.971 55.8965 34.6606 55.8965 30.5763C55.8965 26.492 59.2069 23.1816 63.2912 23.1816C65.1828 23.1816 67.0315 23.9125 68.4072 25.2453C68.4932 25.3313 68.5362 25.4172 68.5362 25.5462C68.5362 25.6752 68.4932 25.7612 68.4072 25.8472L62.6033 31.6511L67.1605 36.2083C67.3324 36.3803 67.3324 36.6382 67.1605 36.8102C67.1175 36.8532 67.1175 36.8532 67.0745 36.8962C65.9567 37.584 64.6239 37.971 63.2912 37.971ZM63.2912 24.0845C59.6798 24.0845 56.7563 27.008 56.7993 30.6193C56.7993 34.2306 59.7228 37.1541 63.3341 37.1111C64.323 37.1111 65.3118 36.8962 66.2146 36.4233L61.7004 31.9521C61.6145 31.8661 61.5715 31.7801 61.5715 31.6511C61.5715 31.5221 61.6145 31.4362 61.7004 31.3502L67.4614 25.5892C66.3006 24.6004 64.8389 24.0845 63.2912 24.0845Z" fill="#FF6C37"/>
<path d="M68.2358 25.6739L68.1498 25.5879L62.002 31.6498L66.8601 36.5079C67.333 36.207 67.8059 35.863 68.1928 35.4761C70.9443 32.7676 70.9443 28.3824 68.2358 25.6739Z" fill="white"/>
<path d="M66.9033 36.9811C66.7743 36.9811 66.6883 36.9381 66.6024 36.8521L61.7012 31.951C61.6153 31.865 61.5723 31.779 61.5723 31.6501C61.5723 31.5211 61.6153 31.4351 61.7012 31.3491L67.8061 25.2442C67.9781 25.0722 68.2361 25.0722 68.408 25.2442L68.537 25.3302C71.4175 28.2107 71.4175 32.8538 68.58 35.7773C68.1501 36.2072 67.6772 36.5942 67.1613 36.8951C67.0323 36.9381 66.9463 36.9811 66.9033 36.9811ZM62.6041 31.6501L66.9463 35.9923C67.2902 35.7773 67.6342 35.4764 67.8921 35.2184C70.3427 32.7679 70.4717 28.7696 68.1071 26.19L62.6041 31.6501Z" fill="#FF6C37"/>
<path d="M59.2511 36.3793C58.2193 35.3475 56.5426 35.3475 55.5108 36.3793L39.3027 52.5874L42.0112 55.2959L59.1652 40.2486C60.283 39.3028 60.3689 37.6261 59.4231 36.5083C59.3371 36.4653 59.2941 36.4223 59.2511 36.3793Z" fill="white"/>
<path d="M41.9685 55.7261C41.8395 55.7261 41.7536 55.6831 41.6676 55.5971L38.9591 52.8886C38.7871 52.7166 38.7871 52.4587 38.9591 52.2867L55.1671 36.0786C56.3709 34.8748 58.3056 34.8748 59.5094 36.0786C60.7131 37.2824 60.7131 39.2171 59.5094 40.4208C59.4664 40.4638 59.4234 40.5068 59.3804 40.5498L42.2265 55.5971C42.1835 55.6831 42.0975 55.7261 41.9685 55.7261ZM39.9049 52.5876L42.0115 54.6943L58.8645 39.9049C59.8103 39.1311 59.8963 37.7123 59.1224 36.7665C58.3486 35.8207 56.9298 35.7347 55.984 36.5085C55.941 36.5515 55.898 36.5945 55.812 36.6375L39.9049 52.5876Z" fill="#FF6C37"/>
<path d="M26.8762 71.0321C26.7042 71.118 26.6182 71.29 26.6612 71.462L27.3921 74.5574C27.564 74.9873 27.3061 75.5033 26.8332 75.6322C26.4892 75.7612 26.1023 75.6322 25.8874 75.3743L21.1582 70.6881L36.5924 55.2539L41.9235 55.3399L45.5348 58.9512C44.675 59.6821 39.4729 64.7122 26.8762 71.0321Z" fill="white"/>
<path d="M26.5344 76.0624C26.1904 76.0624 25.8465 75.9334 25.6315 75.6755L20.9454 70.9893C20.8594 70.9033 20.8164 70.8173 20.8164 70.6884C20.8164 70.5594 20.8594 70.4734 20.9454 70.3874L36.3796 54.9532C36.4656 54.8672 36.5946 54.8242 36.6805 54.8242L42.0116 54.9102C42.1406 54.9102 42.2265 54.9532 42.3125 55.0392L45.9239 58.6505C46.0099 58.7365 46.0529 58.8655 46.0529 58.9945C46.0529 59.1234 46.0099 59.2094 45.8809 59.2954L45.5799 59.5534C41.0228 63.5516 34.8319 67.5499 27.1363 71.3762L27.8671 74.4287C27.9961 74.9876 27.7382 75.5895 27.2223 75.8904C26.9643 76.0194 26.7493 76.0624 26.5344 76.0624ZM21.8052 70.6884L26.2334 75.0736C26.3624 75.2885 26.6204 75.3745 26.8353 75.2455C27.0503 75.1166 27.1363 74.8586 27.0073 74.6436L26.2764 71.5482C26.1904 71.1613 26.3624 70.8173 26.7063 70.6454C34.316 66.8191 40.4639 62.8638 44.9781 58.9515L41.7966 55.77L36.8525 55.6841L21.8052 70.6884Z" fill="#FF6C37"/>
<path d="M17.5048 74.3848L21.2021 70.6875L26.7051 76.1905L17.9347 75.5886C17.5478 75.5456 17.2898 75.2017 17.3328 74.8148C17.3328 74.6428 17.3758 74.4708 17.5048 74.3848Z" fill="white"/>
<path d="M26.7056 76.5777L17.8922 75.9758C17.2473 75.9328 16.8174 75.3739 16.8604 74.729C16.9034 74.4711 16.9894 74.2131 17.2043 74.0412L20.9016 70.3438C21.0736 70.1719 21.3316 70.1719 21.5035 70.3438L27.0065 75.8468C27.1355 75.9758 27.1785 76.1478 27.0925 76.3197C27.0065 76.4917 26.8776 76.5777 26.7056 76.5777ZM21.2026 71.2896L17.8062 74.686C17.6772 74.772 17.6772 74.987 17.8062 75.073C17.8492 75.116 17.8922 75.1589 17.9782 75.1589L25.5878 75.6749L21.2026 71.2896Z" fill="#FF6C37"/>
<path d="M35.0881 57.2313C34.8302 57.2313 34.6582 57.0163 34.6582 56.8013C34.6582 56.6724 34.7012 56.5864 34.7872 56.5004L38.9574 52.3301C39.1294 52.1582 39.3874 52.1582 39.5593 52.3301L42.2678 55.0387C42.3968 55.1676 42.4398 55.2966 42.3968 55.4686C42.3538 55.5976 42.2248 55.7265 42.0529 55.7695L35.1741 57.2313C35.1311 57.2313 35.0881 57.2313 35.0881 57.2313ZM39.2584 53.233L36.4209 56.0705L41.064 55.0817L39.2584 53.233Z" fill="#FF6C37"/>
<path d="M41.9248 55.3413L37.1956 56.3731C36.8517 56.4591 36.5077 56.2441 36.4218 55.9002C36.3788 55.6852 36.4218 55.4703 36.5937 55.2983L39.2163 52.6758L41.9248 55.3413Z" fill="white"/>
<path d="M37.11 56.8013C36.5081 56.8013 36.0352 56.3284 36.0352 55.7265C36.0352 55.4256 36.1641 55.1676 36.3361 54.9527L38.9586 52.3301C39.1306 52.1582 39.3886 52.1582 39.5605 52.3301L42.269 55.0387C42.398 55.1676 42.441 55.2966 42.398 55.4686C42.355 55.5976 42.226 55.7265 42.0541 55.7695L37.3249 56.8013C37.2389 56.8013 37.153 56.8013 37.11 56.8013ZM39.2596 53.233L36.938 55.5546C36.852 55.6406 36.852 55.7265 36.895 55.8125C36.938 55.8985 37.024 55.9415 37.153 55.9415L41.1082 55.0817L39.2596 53.233Z" fill="#FF6C37"/>
<path d="M68.278 29.8021C68.192 29.5441 67.8911 29.4152 67.6331 29.5011C67.3752 29.5871 67.2462 29.8881 67.3322 30.146C67.3322 30.189 67.3752 30.232 67.3752 30.275C67.6331 30.7909 67.5472 31.4358 67.2032 31.9087C67.0313 32.1237 67.0743 32.4246 67.2462 32.5966C67.4612 32.7685 67.7621 32.7256 67.9341 32.5106C68.579 31.6937 68.708 30.6619 68.278 29.8021Z" fill="#FF6C37"/>
</svg>
