<svg width="86" height="102" viewBox="0 0 86 102" fill="none" xmlns="http://www.w3.org/2000/svg">
<path fill-rule="evenodd" clip-rule="evenodd" d="M43 8C66.7489 8 86 27.7367 86 52.0876C86 71.5623 73.6934 88.083 56.6181 93.9181C54.438 94.3524 53.664 92.9756 53.664 91.8017C53.664 90.3483 53.7156 85.6013 53.7156 79.7017C53.7156 75.5909 52.3396 72.9079 50.7959 71.5405C60.372 70.4483 70.434 66.7198 70.434 49.7864C70.434 44.9704 68.7656 41.0404 66.005 37.953C66.4522 36.8393 67.9271 32.355 65.5836 26.2834C65.5836 26.2834 61.9802 25.1021 53.7715 30.8039C50.3358 29.8278 46.655 29.3366 43 29.3194C39.345 29.3366 35.6685 29.8278 32.2371 30.8039C24.0198 25.1021 20.4078 26.2834 20.4078 26.2834C18.0729 32.355 19.5478 36.8393 19.9907 37.953C17.243 41.0404 15.5617 44.9704 15.5617 49.7864C15.5617 66.6768 25.6022 70.4625 35.1525 71.5762C33.9227 72.677 32.809 74.6189 32.422 77.4698C29.971 78.5964 23.7446 80.5462 19.909 73.8081C19.909 73.8081 17.6343 69.572 13.3171 69.2624C13.3171 69.2624 9.1246 69.2067 13.0247 71.9415C13.0247 71.9415 15.8412 73.296 17.7977 78.3915C17.7977 78.3915 20.3218 86.2603 32.2844 83.5943C32.3059 87.2794 32.3446 90.7525 32.3446 91.8017C32.3446 92.967 31.5534 94.3308 29.4077 93.9223C12.3195 88.0958 0 71.5666 0 52.0876C0 27.7367 19.2554 8 43 8Z" fill="white"/>
</svg>
