<svg width="86" height="102" viewBox="0 0 86 102" fill="none" xmlns="http://www.w3.org/2000/svg">
<path d="M18.3836 22.6228L67.9598 22.7045L67.9282 81.5061H55.5163L55.5507 37.3828H43.1674L43.1387 81.4721H18.3205L18.3836 22.6228ZM6.31855 0C6.31282 0 0.0130072 0 0.00727284 0C-0.00523556 7.47519 0.00218522 3.34649 0.00218522 7.47519C0.00218522 7.48199 0.00218522 7.4888 0.00218522 7.4956V94.5078C0.00218522 94.5146 0.00218522 101.993 0.00218522 102C6.32142 102 2.82348 102 6.30422 102C6.30995 102 6.31569 102 6.32142 102H79.6779C79.6836 102 85.9885 102 85.9943 102C85.9943 95 85.9943 98.6535 85.9943 94.5248C85.9943 94.518 85.9943 94.5112 85.9943 94.5044V7.4922C85.9943 7.4854 85.9943 7.48199 85.9943 7.47519C85.9943 3.34649 85.9943 7.47519 86 0C85.9943 0 79.6808 0 79.675 0H6.31855Z" fill="white"/>
</svg>
