<svg width="86" height="75" viewBox="0 0 86 75" fill="none" xmlns="http://www.w3.org/2000/svg">
<path d="M50.6793 37.1959C50.6793 33.0839 47.2413 29.75 42.9998 29.75C38.7589 29.75 35.3203 33.0839 35.3203 37.1959C35.3203 41.3084 38.7589 44.642 42.9998 44.642C47.2413 44.642 50.6793 41.3084 50.6793 37.1959Z" fill="#53C1DE"/>
<path fill-rule="evenodd" clip-rule="evenodd" d="M67.9411 23.3739C69.5628 16.9844 71.6013 5.13557 64.4151 1.11846C57.2625 -2.88115 47.9547 4.78283 43.0398 9.38311C38.1393 4.82867 28.5701 -2.80254 21.39 1.22733C14.2402 5.24035 16.445 16.8927 18.1027 23.3223C11.4332 25.159 0 29.115 0 37.1976C0 45.2572 11.4213 49.5612 18.0513 51.3962C16.3875 57.8614 14.2931 69.3472 21.452 73.3514C28.6589 77.3805 38.1983 69.9309 43.1588 65.2803C48.1052 69.9077 57.3236 77.406 64.4776 73.3907C71.6541 69.3627 69.785 57.6727 68.1272 51.2058C74.5543 49.3669 86 45.1566 86 37.1976C86 29.1927 74.5055 25.2046 67.9411 23.3739ZM67.1264 47.7787C66.038 44.4379 64.5688 40.8853 62.7717 37.2153C64.4871 33.632 65.8992 30.1252 66.9573 26.8059C71.7696 28.1587 82.3264 31.2504 82.3264 37.1976C82.3264 43.2007 72.1959 46.3216 67.1264 47.7787ZM62.6367 70.3079C57.2989 73.3035 49.37 66.1328 45.717 62.7252C48.1405 60.1553 50.5623 57.1676 52.9258 53.85C57.0836 53.4926 61.0113 52.9078 64.5734 52.1094C65.7401 56.6837 67.9979 67.2987 62.6367 70.3079ZM23.2877 70.2651C17.9494 67.2807 20.3894 57.0312 21.6134 52.2688C25.1359 53.0244 29.0353 53.568 33.2029 53.8956C35.5819 57.1418 38.0739 60.1257 40.5851 62.739C37.4825 65.6489 28.6509 73.2634 23.2877 70.2651ZM3.6736 37.1976C3.6736 31.1721 14.1673 28.1028 19.0892 26.7534C20.1656 30.1473 21.5773 33.6959 23.2809 37.2844C21.5552 40.9262 20.1233 44.5311 19.0371 47.9651C14.3439 46.6624 3.6736 43.2267 3.6736 37.1976ZM23.2306 4.31014C28.5907 1.30192 36.9075 8.62817 40.4656 11.9257C37.9673 14.5269 35.4982 17.4884 33.1395 20.716C29.0949 21.0795 25.2231 21.6631 21.6637 22.4451C20.3282 17.2594 17.8763 7.31513 23.2306 4.31014ZM55.554 24.5877C58.298 24.9234 60.927 25.37 63.3955 25.9164C62.6544 28.2195 61.7308 30.6277 60.6429 33.0965C59.0659 30.1955 57.3732 27.3526 55.554 24.5877ZM43.041 14.4712C44.7355 16.251 46.4325 18.2386 48.1021 20.3949C44.7157 20.2395 41.3239 20.2389 37.9375 20.3926C39.6084 18.2563 41.3201 16.2717 43.041 14.4712ZM25.3886 33.0939C24.3188 30.6338 23.4034 28.2149 22.6559 25.8788C25.1096 25.3465 27.7264 24.9113 30.4526 24.5811C28.6283 27.34 26.9384 30.1817 25.3886 33.0939ZM30.5309 50.0683C27.7146 49.7636 25.0583 49.3505 22.6053 48.8328C23.3646 46.4558 24.3001 43.9847 25.3928 41.4715C26.9639 44.4141 28.6796 47.2834 30.5309 50.0683ZM43.1428 60.1756C41.4015 58.3539 39.6646 56.3389 37.9684 54.1717C41.374 54.3013 44.7862 54.3015 48.1915 54.1542C46.5168 56.361 44.8258 58.3788 43.1428 60.1756ZM60.6779 41.3436C61.8274 43.8841 62.7963 46.3417 63.566 48.6786C61.0723 49.2304 58.3802 49.6747 55.5437 50.0047C57.3763 47.1873 59.096 44.3003 60.6779 41.3436ZM50.8756 50.4364C45.6663 50.7973 40.4246 50.7933 35.2136 50.4659C32.2526 46.2723 29.6167 41.8619 27.3414 37.2833C29.6058 32.7141 32.2225 28.3123 35.1694 24.1253C40.3842 23.7432 45.631 23.742 50.8458 24.1276C53.7675 28.3143 56.3802 32.7046 58.697 37.2325C56.4077 41.7994 53.7772 46.2101 50.8756 50.4364ZM62.5802 4.20425C67.9417 7.20261 65.5552 17.8515 64.3839 22.4821C60.816 21.6837 56.9415 21.0898 52.8851 20.7205C50.5218 17.4581 48.0734 14.4915 45.6155 11.9239C49.2192 8.5553 57.2705 1.23521 62.5802 4.20425Z" fill="#53C1DE"/>
</svg>
