<svg width="86" height="84" viewBox="0 0 86 84" fill="none" xmlns="http://www.w3.org/2000/svg">
<path d="M42.7019 0.00737279C41.9416 0.0456688 41.1967 0.234159 40.5109 0.561785L10.613 14.8473C9.83918 15.2169 9.15927 15.7546 8.62376 16.4206C8.08825 17.0865 7.71089 17.8636 7.51973 18.694L0.143632 50.7829C-0.0266871 51.5222 -0.045744 52.2879 0.0875892 53.0347C0.220922 53.7815 0.503937 54.4941 0.919883 55.1305C1.02073 55.2861 1.12919 55.4367 1.24487 55.5817L21.939 81.3116C22.4746 81.9773 23.1546 82.5149 23.9285 82.8843C24.7023 83.2537 25.5501 83.4454 26.4089 83.4453L59.5952 83.4377C60.4537 83.4383 61.3013 83.2472 62.0751 82.8785C62.8489 82.5098 63.5291 81.973 64.0651 81.3079L84.7517 55.574C85.2876 54.9079 85.6652 54.1305 85.8565 53.2997C86.0478 52.4689 86.0478 51.606 85.8566 50.7752L78.4693 18.6863C78.2782 17.8559 77.9008 17.0789 77.3652 16.4129C76.8297 15.747 76.1498 15.2093 75.376 14.8397L45.4742 0.561663C44.6114 0.149555 43.6582 -0.041039 42.7019 0.00737279Z" fill="#326CE5"/>
<path d="M42.9984 10.9258C42.0101 10.9259 41.2087 11.8161 41.2088 12.9141C41.2088 12.931 41.2123 12.9472 41.2125 12.9638C41.2112 13.1131 41.2039 13.2928 41.2088 13.4227C41.2323 14.056 41.3704 14.5408 41.4536 15.1243C41.6041 16.3731 41.7301 17.4084 41.6524 18.3706C41.5765 18.7334 41.3094 19.0653 41.0712 19.2959L41.0291 20.0531C39.9405 20.1427 38.8595 20.3088 37.7941 20.5501C33.1477 21.6052 29.147 23.9987 26.1012 27.2302C25.8838 27.0801 25.6684 26.9272 25.455 26.7714C25.1354 26.8146 24.8126 26.9132 24.3919 26.6681C23.5911 26.1291 22.8617 25.385 21.9791 24.4886C21.5747 24.0599 21.2819 23.6516 20.8014 23.2382C20.6924 23.1444 20.5259 23.0175 20.4038 22.9208C20.0281 22.6214 19.5852 22.4652 19.1573 22.4506C18.6071 22.4318 18.0776 22.6469 17.731 23.0815C17.1148 23.8542 17.3121 25.0353 18.1707 25.7198C18.1794 25.7268 18.1887 25.7322 18.1975 25.739C18.3154 25.8346 18.4599 25.9572 18.5684 26.0372C19.0782 26.4137 19.5439 26.6064 20.052 26.9052C21.1222 27.5662 22.0096 28.1142 22.7133 28.775C22.9881 29.068 23.0362 29.5842 23.0728 29.8075L23.6463 30.3198C20.5759 34.9406 19.1548 40.6482 19.9947 46.4637L19.2452 46.6816C19.0476 46.9368 18.7685 47.3381 18.4766 47.4579C17.5558 47.7479 16.5196 47.8543 15.2686 47.9855C14.6812 48.0345 14.1743 48.0052 13.5516 48.1232C13.4146 48.1491 13.2237 48.1989 13.0737 48.234L13.0584 48.2379C13.0502 48.2398 13.0394 48.2438 13.0316 48.2455C11.9768 48.5004 11.2993 49.4699 11.5174 50.4251C11.7355 51.3805 12.7658 51.9615 13.8269 51.7328C13.8346 51.7311 13.8458 51.7307 13.8537 51.729C13.8657 51.7263 13.8762 51.7204 13.8881 51.7175C14.0361 51.6851 14.2214 51.649 14.3509 51.6143C14.963 51.4504 15.4063 51.2096 15.9568 50.9986C17.1408 50.574 18.1215 50.2192 19.077 50.0809C19.4759 50.0497 19.8964 50.3271 20.1056 50.4442L20.8856 50.3104C22.6806 55.8756 26.4425 60.3738 31.2059 63.1964L30.8808 63.9765C30.998 64.2793 31.1272 64.6891 31.0399 64.9884C30.6926 65.889 30.0977 66.8397 29.4202 67.8996C29.0922 68.3893 28.7564 68.7693 28.4604 69.3297C28.3896 69.4638 28.2994 69.6699 28.231 69.8115C27.771 70.7956 28.1084 71.9289 28.9919 72.3543C29.881 72.7822 30.9845 72.3308 31.462 71.3449C31.4628 71.3434 31.4652 71.3424 31.4658 71.341C31.4663 71.3398 31.4653 71.3383 31.4658 71.3373C31.5338 71.1974 31.6303 71.0136 31.6877 70.8821C31.9412 70.3013 32.0256 69.8035 32.2039 69.2417C32.6774 68.0524 32.9374 66.8045 33.5892 66.0269C33.7678 65.814 34.0587 65.732 34.3605 65.6512L34.7657 64.9171C38.9184 66.511 43.5667 66.9388 48.21 65.8846C49.2536 65.6472 50.2796 65.338 51.2805 64.9591C51.3943 65.1612 51.6061 65.5497 51.6629 65.6474C51.9695 65.7471 52.3041 65.7987 52.5768 66.2018C53.0644 67.0351 53.3978 68.0207 53.8042 69.2112C53.9825 69.7729 54.0707 70.2708 54.3242 70.8515C54.382 70.9839 54.4779 71.1703 54.5459 71.3104C55.0225 72.2996 56.1296 72.7526 57.0201 72.3237C57.9034 71.8982 58.2411 70.7649 57.7809 69.7809C57.7125 69.6392 57.6185 69.4332 57.5477 69.2991C57.2516 68.7387 56.9159 68.3625 56.5879 67.8729C55.9104 66.813 55.3484 65.9325 55.001 65.0317C54.8558 64.5672 55.0255 64.2783 55.1387 63.9765C55.0709 63.8988 54.9259 63.4601 54.8405 63.2538C59.7908 60.3308 63.4421 55.6648 65.1569 50.276C65.3885 50.3124 65.7909 50.3836 65.9216 50.4098C66.1908 50.2324 66.4382 50.0007 66.9235 50.039C67.8789 50.1771 68.8596 50.5321 70.0437 50.9567C70.594 51.1675 71.0374 51.4122 71.6496 51.576C71.779 51.6107 71.9644 51.643 72.1123 51.6755C72.1242 51.6783 72.1347 51.6842 72.1467 51.6869C72.1547 51.6887 72.1658 51.689 72.1735 51.6908C73.2346 51.9191 74.2651 51.3384 74.483 50.383C74.7008 49.4278 74.0237 48.4581 72.9688 48.2036C72.8154 48.1686 72.5978 48.1093 72.4488 48.0812C71.826 47.9632 71.3193 47.9922 70.7319 47.9435C69.4808 47.8124 68.4445 47.7058 67.5238 47.4158C67.1484 47.2702 66.8813 46.8235 66.7513 46.6396L66.0287 46.4293C66.4033 43.7185 66.3024 40.8972 65.654 38.0744C64.9995 35.2253 63.8431 32.6196 62.3005 30.3237C62.4859 30.1551 62.8361 29.8452 62.9353 29.7539C62.9643 29.4328 62.9393 29.0962 63.2718 28.7406C63.9755 28.0799 64.8628 27.5318 65.9331 26.8709C66.4412 26.5719 66.9108 26.3793 67.4205 26.0028C67.5358 25.9177 67.6934 25.7828 67.8144 25.6854C68.6727 25.0007 68.8704 23.8197 68.2542 23.0471C67.6378 22.2745 66.4436 22.2016 65.5851 22.8865C65.463 22.9832 65.2972 23.1095 65.1875 23.2039C64.7071 23.6172 64.4103 24.0254 64.0059 24.4543C63.1234 25.3507 62.394 26.0985 61.5931 26.6376C61.2461 26.8395 60.7378 26.7698 60.5072 26.7561L59.8266 27.2417C55.9454 23.172 50.6613 20.5701 44.9714 20.0646C44.9555 19.8261 44.9347 19.3952 44.9293 19.2653C44.6963 19.0425 44.4149 18.8523 44.3443 18.3706C44.2664 17.4084 44.3964 16.3731 44.5469 15.1243C44.63 14.5408 44.768 14.0561 44.7917 13.4227C44.797 13.2788 44.7884 13.0698 44.7879 12.9141C44.7877 11.8161 43.9867 10.9258 42.9984 10.9258ZM40.7576 24.806L40.226 34.1932L40.1879 34.2124C40.1521 35.0522 39.4611 35.7227 38.6125 35.7227C38.2649 35.7227 37.944 35.6111 37.6833 35.4207L37.668 35.4283L29.9708 29.9718C32.3364 27.6458 35.3624 25.9266 38.8495 25.1349C39.4795 24.9927 40.1163 24.8829 40.7576 24.806ZM45.2428 24.806C49.3142 25.3067 53.0793 27.1503 55.9646 29.9757L48.3171 35.3977L48.2904 35.3864C47.6116 35.882 46.6552 35.7591 46.1261 35.0958C45.917 34.8355 45.7964 34.5153 45.782 34.1817L45.7743 34.1781L45.2428 24.806ZM27.1794 33.4783L34.2075 39.7645L34.1998 39.8027C34.8343 40.3542 34.9279 41.3112 34.3987 41.9746C34.1901 42.2366 33.9035 42.4254 33.5804 42.5137L33.5727 42.5443L24.564 45.1444C24.1055 40.9518 25.0937 36.8762 27.1794 33.4783ZM58.7675 33.482C59.8117 35.1746 60.6024 37.065 61.0731 39.1144C61.5382 41.1392 61.6549 43.1605 61.4632 45.1139L52.4086 42.5061L52.4009 42.4678C51.5901 42.2464 51.0917 41.4215 51.2805 40.5942C51.354 40.2688 51.5295 39.9754 51.7815 39.7568L51.7777 39.7377L58.7675 33.4821V33.482ZM41.5567 40.25H44.4361L46.2256 42.487L45.5832 45.2783L42.9984 46.521L40.4058 45.2745L39.7634 42.4831L41.5567 40.25ZM50.7873 47.9052C50.9096 47.8991 51.0314 47.9101 51.1506 47.932L51.1659 47.9128L60.4843 49.4882C59.1205 53.3198 56.5109 56.6389 53.0242 58.8602L49.4069 50.123L49.4183 50.1077C49.0861 49.3356 49.4186 48.4302 50.1831 48.062C50.3789 47.9678 50.5833 47.9155 50.7873 47.9052ZM35.1367 47.9434C35.8478 47.9535 36.4856 48.4471 36.6509 49.1709C36.7283 49.5099 36.6906 49.8455 36.5628 50.1421L36.5898 50.1765L33.0107 58.8259C29.6644 56.6786 26.9992 53.4636 25.5735 49.5188L34.8116 47.9511L34.8269 47.9702C34.9303 47.9513 35.0351 47.9421 35.1367 47.9434ZM42.9408 51.7329C43.196 51.724 43.4494 51.7778 43.6789 51.8895C43.9922 52.0404 44.2341 52.2779 44.3863 52.5625H44.4208L48.9748 60.7912C48.3769 60.991 47.7695 61.1608 47.1547 61.2999C43.6718 62.0907 40.2 61.851 37.0563 60.7798L41.5988 52.5664H41.6065C41.7367 52.323 41.9284 52.1179 42.1626 51.9716C42.3967 51.8254 42.6651 51.743 42.941 51.7328L42.9408 51.7329Z" fill="white" stroke="white" stroke-width="0.03059"/>
</svg>
