<svg width="86" height="52" viewBox="0 0 86 52" fill="none" xmlns="http://www.w3.org/2000/svg">
<path d="M24.24 18.7429C24.24 19.8018 24.3475 20.6618 24.5517 21.2961C24.7775 21.925 25.0678 22.613 25.4655 23.3601C25.5924 23.5575 25.6613 23.7866 25.6644 24.0213C25.6644 24.3062 25.4924 24.5964 25.1269 24.8813L23.3209 26.0853C23.1041 26.2418 22.8462 26.3315 22.5791 26.3433C22.2888 26.3433 22.004 26.2036 21.7191 25.9456C21.3327 25.5299 20.9872 25.0781 20.6871 24.5964C20.3691 24.0449 20.075 23.48 19.8055 22.9033C17.5695 25.5424 14.7691 26.8647 11.3935 26.8647C8.99086 26.8647 7.07195 26.1713 5.67443 24.7953C4.27153 23.4193 3.55664 21.581 3.55664 19.2858C3.55664 16.8455 4.41666 14.8675 6.15818 13.3732C7.90509 11.879 10.2218 11.1372 13.1673 11.1372C14.1348 11.1372 15.14 11.2232 16.1989 11.3629C17.2577 11.5081 18.3489 11.7392 19.4884 11.9972V9.90092C19.4884 7.71863 19.0315 6.19748 18.1446 5.31059C17.2309 4.41833 15.6828 3.98832 13.4791 3.98832C12.4793 3.98832 11.4526 4.10657 10.3938 4.36457C9.3417 4.61496 8.30886 4.94008 7.30308 5.33746C6.97836 5.48449 6.64439 5.61017 6.30331 5.71372C6.15551 5.76255 6.00187 5.79147 5.84643 5.79972C5.4433 5.79972 5.24442 5.50947 5.24442 4.90746V3.49918C5.24442 3.0423 5.29817 2.69292 5.4433 2.49942C5.6599 2.23569 5.93631 2.02746 6.24956 1.89203C7.24395 1.37602 8.44797 0.946016 9.85087 0.60201C11.2484 0.225754 12.7373 0.0591268 14.3122 0.0591268C17.7146 0.0591268 20.2033 0.833141 21.8051 2.38117C23.38 3.92919 24.1809 6.28348 24.1809 9.44403V18.7429H24.2346H24.24ZM12.6244 23.1021C13.5651 23.1021 14.538 22.9301 15.57 22.5861C16.602 22.2421 17.5158 21.6079 18.2844 20.7479C18.7453 20.2198 19.0782 19.5926 19.2573 18.9149C19.4293 18.2216 19.5475 17.3938 19.5475 16.4155V15.2115C18.6794 15.001 17.8001 14.8395 16.9137 14.7277C16.0225 14.6125 15.1249 14.5532 14.2262 14.5504C12.3073 14.5504 10.9098 14.9266 9.96375 15.7006C9.01773 16.4747 8.56623 17.5658 8.56623 19.0009C8.56623 20.3447 8.90486 21.3499 9.61974 22.0432C10.3078 22.7581 11.3075 23.1021 12.6244 23.1021ZM35.5922 26.2036C35.0762 26.2036 34.7322 26.1176 34.5064 25.9133C34.2753 25.7413 34.0764 25.3435 33.9044 24.7953L27.1855 2.61229C27.0549 2.24028 26.9683 1.85422 26.9275 1.46203C26.9275 1.00514 27.1533 0.74714 27.6102 0.74714H30.416C30.9535 0.74714 31.3297 0.833141 31.5286 1.03202C31.7597 1.20402 31.9317 1.60715 32.1037 2.15004L36.9091 21.151L41.3704 2.15004C41.5102 1.58028 41.6822 1.20402 41.9133 1.03202C42.2566 0.821843 42.6564 0.722385 43.0582 0.74714H45.348C45.8855 0.74714 46.2617 0.833141 46.4875 1.03202C46.7186 1.20402 46.9175 1.60715 47.0358 2.15004L51.5508 21.3821L56.4959 2.15004C56.5879 1.73395 56.786 1.34877 57.071 1.03202C57.4042 0.821286 57.7957 0.721553 58.1891 0.74714H60.8497C61.3066 0.74714 61.5646 0.978268 61.5646 1.46203C61.5646 1.60715 61.5324 1.75228 61.5109 1.92428C61.4644 2.16824 61.3961 2.4075 61.3066 2.63917L54.4104 24.8222C54.2437 25.3973 54.0395 25.7736 53.8137 25.9456C53.4892 26.1532 53.1072 26.2529 52.7226 26.2304H50.2662C49.7233 26.2304 49.3524 26.1444 49.1213 25.9456C48.8902 25.7413 48.6913 25.3704 48.5784 24.7953L44.144 6.28886L39.7364 24.7738C39.5966 25.3489 39.4246 25.7198 39.1989 25.9187C38.9677 26.1229 38.5646 26.2089 38.054 26.2089H35.5922V26.2036ZM72.3471 26.9776C70.8627 26.9796 69.3833 26.8064 67.9395 26.4616C66.5097 26.1176 65.3971 25.7413 64.6499 25.3113C64.193 25.0533 63.8813 24.7684 63.763 24.505C63.654 24.252 63.5974 23.9796 63.5964 23.7041V22.2421C63.5964 21.6401 63.8222 21.3499 64.2522 21.3499C64.4277 21.3502 64.602 21.3793 64.7682 21.4359C64.9402 21.495 65.1982 21.6079 65.4831 21.7261C66.4506 22.1561 67.5148 22.5001 68.6275 22.7313C69.7724 22.957 70.885 23.0753 72.0299 23.0753C73.836 23.0753 75.2335 22.7581 76.2064 22.1292C76.6737 21.8463 77.0578 21.4446 77.3193 20.9649C77.5808 20.4852 77.7106 19.9448 77.6953 19.3987C77.7049 19.03 77.6415 18.663 77.5087 18.3189C77.3758 17.9748 77.1762 17.6604 76.9212 17.3938C76.4106 16.8455 75.4377 16.3564 74.0348 15.8995L69.8853 14.6095C67.7997 13.9484 66.2517 12.9701 65.3111 11.6801C64.3902 10.4881 63.8877 9.02596 63.8813 7.51975C63.8813 6.31573 64.1393 5.25146 64.6499 4.33232C65.1659 3.41856 65.8539 2.61229 66.714 1.97803C67.574 1.32227 68.5415 0.833139 69.6864 0.489134C70.8313 0.145128 72.0299 0 73.2877 0C73.922 0 74.5777 0.0268775 75.2066 0.112879C75.8624 0.19888 76.4644 0.317132 77.0664 0.435384C77.6361 0.575136 78.1844 0.714889 78.695 0.892267C79.211 1.06427 79.6088 1.23627 79.8991 1.40827C80.2365 1.57792 80.5306 1.82244 80.7591 2.12316C80.9431 2.40302 81.0317 2.73485 81.0117 3.06918V4.41832C81.0117 5.02033 80.7859 5.33746 80.3559 5.33746C79.9752 5.29399 79.6065 5.17717 79.2702 4.99346C77.5417 4.22727 75.6673 3.84579 73.7768 3.87544C72.1482 3.87544 70.8581 4.13345 69.9713 4.6817C69.0844 5.21921 68.6275 6.05773 68.6275 7.23487C68.6275 8.03576 68.9124 8.72377 69.4875 9.27203C70.0573 9.81492 71.1161 10.3578 72.6319 10.8469L76.6955 12.137C78.7542 12.7981 80.2431 13.7172 81.13 14.8944C82.0168 16.0715 82.4415 17.4207 82.4415 18.9149C82.4415 20.1512 82.1888 21.2639 81.6997 22.2421C81.1934 23.2238 80.4822 24.0854 79.6142 24.7684C78.7273 25.4833 77.6684 26.0047 76.4375 26.3756C75.1475 26.7787 73.8037 26.9776 72.3471 26.9776Z" fill="white"/>
<path fill-rule="evenodd" clip-rule="evenodd" d="M77.7503 40.9216C68.3439 47.8931 54.6697 51.5965 42.9143 51.5965C26.4397 51.5965 11.5937 45.485 0.381257 35.3261C-0.505633 34.5199 0.295255 33.4287 1.34877 34.063C13.4804 41.1205 28.4392 45.399 43.9195 45.399C54.3525 45.399 65.823 43.2168 76.3797 38.7393C77.9546 38.0244 79.2983 39.7713 77.7503 40.9216Z" fill="white"/>
<path fill-rule="evenodd" clip-rule="evenodd" d="M81.6692 36.4434C80.4705 34.9007 73.7194 35.7016 70.661 36.0725C69.7472 36.1908 69.6021 35.3845 70.4299 34.7825C75.805 30.993 84.647 32.0842 85.6736 33.3473C86.7056 34.6374 85.3887 43.5063 80.3523 47.7526C79.5836 48.4137 78.8419 48.0751 79.1859 47.2151C80.3254 44.3663 82.8732 37.9699 81.6692 36.4488V36.4434Z" fill="white"/>
</svg>
