<svg width="64" height="102" viewBox="0 0 64 102" fill="none" xmlns="http://www.w3.org/2000/svg">
<path d="M21.7341 9.0746C20.6097 7.94469 19.041 7.2469 17.2971 7.2469C15.5598 7.2469 14.0032 7.94469 12.8921 9.0746H12.8601C11.739 10.199 11.0412 11.7688 11.0412 13.5061C11.0412 15.25 11.739 16.8065 12.8601 17.9243L12.8921 17.9497C14.0032 19.0741 15.5598 19.7653 17.2971 19.7653C19.041 19.7653 20.6097 19.0741 21.7341 17.9497L21.7506 17.9243C22.8772 16.8065 23.5684 15.25 23.5684 13.5061C23.5684 11.7688 22.8772 10.199 21.7506 9.0746H21.7341ZM17.2971 94.7531C19.041 94.7531 20.6097 94.0432 21.7341 92.932L21.7506 92.8989C22.8772 91.79 23.5684 90.2202 23.5684 88.495C23.5684 86.7511 22.8772 85.188 21.7506 84.058H21.7341C20.6097 82.9149 19.041 82.2237 17.2971 82.2237C15.5598 82.2237 14.0032 82.9149 12.8921 84.058H12.8601C11.739 85.188 11.0412 86.7511 11.0412 88.495C11.0412 90.2202 11.739 91.79 12.8601 92.8989L12.8921 92.932C14.0032 94.0432 15.5598 94.7531 17.2971 94.7531ZM51.3996 75.7904C52.9506 75.3836 54.355 74.3882 55.2116 72.8834L55.3273 72.6641C56.089 71.2365 56.2279 69.5896 55.8212 68.1301C55.4111 66.5669 54.4035 65.1846 52.9021 64.3192L52.815 64.2608C51.3522 63.4594 49.6854 63.2852 48.1543 63.6986C46.5977 64.0866 45.2 65.1262 44.3478 66.6187C43.4847 68.097 43.3039 69.8024 43.7173 71.3721C44.1439 72.9154 45.1415 74.311 46.633 75.183H46.6429C48.1377 76.0417 49.831 76.1971 51.3996 75.7904ZM23.7205 44.5859C22.0758 42.9456 19.8094 41.9182 17.2971 41.9182C14.7947 41.9182 12.5338 42.9456 10.8924 44.5859C9.2587 46.2207 8.25114 48.4817 8.25114 50.9873C8.25114 53.4996 9.2587 55.7671 10.8924 57.4207C12.5338 59.0478 14.7947 60.0685 17.2971 60.0685C19.8094 60.0685 22.0758 59.0478 23.7205 57.4207C25.3575 55.7671 26.3651 53.4996 26.3651 50.9873C26.3651 48.4817 25.3575 46.2207 23.7205 44.5859ZM20.1092 33.9173C23.7492 34.517 27.0243 36.2609 29.5233 38.7798H29.5432C29.94 39.18 30.3281 39.6132 30.6863 40.0519L36.9356 36.4362C36.0956 33.8975 36.057 31.243 36.7316 28.7561C37.6235 25.4226 39.7841 22.4385 43.0228 20.5656L43.1297 20.5016C46.3332 18.6861 49.9754 18.3113 53.2637 19.2031C56.5928 20.0938 59.5967 22.2643 61.4663 25.5008V25.5074C63.3271 28.7241 63.7052 32.4181 62.8167 35.7384C61.9315 39.0697 59.761 42.0737 56.5256 43.9333L55.6723 44.4382H55.5853C52.5924 45.8647 49.3007 46.0851 46.2781 45.2903C43.7955 44.6311 41.5181 43.2488 39.7356 41.2789L33.4962 44.8836C34.2128 46.7818 34.6107 48.83 34.6107 50.9873C34.6107 53.138 34.2128 55.2116 33.4962 57.123L39.7356 60.7145C41.5181 58.7193 43.7955 57.3623 46.2781 56.703C49.6072 55.7925 53.299 56.1805 56.5256 58.06L56.7317 58.1571V58.1703C59.8492 60.0553 61.9415 62.9755 62.8167 66.2693C63.7052 69.5698 63.3271 73.2649 61.4663 76.4882L61.3539 76.7141L61.3407 76.6943C59.4711 79.8018 56.5256 81.9073 53.2736 82.798C49.9368 83.6766 46.2461 83.3018 43.0228 81.4488V81.4223C39.7841 79.5494 37.6235 76.5587 36.7316 73.2329C36.057 70.7526 36.0956 68.097 36.9356 65.5594L30.6863 61.9547C30.3281 62.3945 29.94 62.8079 29.5432 63.2081L29.5233 63.2268C27.0243 65.7336 23.7492 67.4775 20.1092 68.0584V75.28C22.703 75.8223 25.0279 77.1209 26.8501 78.942L26.8589 78.9618C29.3007 81.3903 30.812 84.7746 30.812 88.495C30.812 92.2034 29.3007 95.5666 26.8589 98.0084L26.8501 98.047C24.3919 100.489 21.0175 102 17.2971 102C13.5965 102 10.2177 100.489 7.76611 98.047H7.75729V98.0084C5.31226 95.5666 3.79762 92.2034 3.79762 88.495C3.79762 84.7746 5.31226 81.3903 7.75729 78.9618V78.942H7.76611C9.585 77.1209 11.9132 75.8223 14.5004 75.28V68.0584C10.8571 67.4775 7.59193 65.7336 5.0962 63.2268L5.06974 63.2081C1.95007 60.0752 0 55.7671 0 50.9873C0 46.2207 1.95007 41.9127 5.06974 38.7798H5.0962C7.59193 36.2609 10.8571 34.517 14.5004 33.9173V26.7278C11.9132 26.1655 9.585 24.8681 7.76611 23.0591H7.75729V23.0393C5.31226 20.5854 3.79762 17.2265 3.79762 13.5061C3.79762 9.80436 5.31226 6.41351 7.75729 3.97179L7.76611 3.95967C10.2177 1.51133 13.5965 0 17.2971 0C21.0175 0 24.3919 1.51133 26.8501 3.95967V3.97179H26.8589C29.3007 6.41351 30.812 9.80436 30.812 13.5061C30.812 17.2265 29.3007 20.5854 26.8589 23.0393L26.8501 23.0591C25.0279 24.8681 22.703 26.1655 20.1092 26.7278V33.9173ZM55.2116 29.1243L55.1597 29.0471C54.2966 27.5931 52.9209 26.6241 51.3996 26.2041C49.831 25.7907 48.1377 25.966 46.633 26.8248H46.6429C45.1415 27.6769 44.1373 29.0725 43.7173 30.6356C43.3039 32.1855 43.4847 33.8975 44.3478 35.389L44.3765 35.4287C45.2418 36.9003 46.6176 37.888 48.1543 38.2882C49.6987 38.7214 51.4194 38.5406 52.9021 37.6753L52.9826 37.6367C54.4421 36.7647 55.4144 35.389 55.8212 33.8776C56.2345 32.3211 56.0703 30.6158 55.2116 29.1243Z" fill="white"/>
</svg>
