<svg width="86" height="87" viewBox="0 0 86 87" fill="none" xmlns="http://www.w3.org/2000/svg">
<path d="M82.5512 34.4126H55.0342C54.118 34.4184 53.2377 34.057 52.5899 33.4091C51.9421 32.7613 51.5807 31.881 51.5865 30.9649V3.44784C51.5865 2.53542 51.2226 1.66068 50.5754 1.01753C49.9282 0.374379 49.0512 0.0159447 48.1388 0.0216832H37.8387C36.9263 0.0159447 36.0493 0.374379 35.4021 1.01753C34.7549 1.66068 34.391 2.53542 34.391 3.44784V30.9649C34.3968 31.881 34.0354 32.7613 33.3876 33.4091C32.7398 34.057 31.8595 34.4184 30.9433 34.4126H20.6433C19.7271 34.4184 18.8468 34.057 18.199 33.4091C17.5512 32.7613 17.1898 31.881 17.1956 30.9649V3.44784C17.2014 2.53169 16.84 1.65139 16.1922 1.00357C15.5443 0.355738 14.664 -0.00564531 13.7479 6.66971e-05H3.4263C2.51388 6.66971e-05 1.63914 0.364043 0.995984 1.01124C0.352831 1.65844 -0.0056035 2.53544 6.66971e-05 3.44784V82.5728C-0.00564531 83.4889 0.355738 84.3692 1.00357 85.017C1.65139 85.6649 2.53169 86.0262 3.44784 86.0205H82.5512C83.4674 86.0262 84.3477 85.6649 84.9955 85.017C85.6433 84.3692 86.0047 83.4889 85.9989 82.5728V37.9249C86.0223 36.9977 85.6687 36.1006 85.0189 35.4386C84.3691 34.7767 83.4787 34.4064 82.5512 34.4126ZM68.7173 63.6319C68.723 65.0015 68.1829 66.317 67.2165 67.2875C66.2501 68.2579 64.9369 68.8035 63.5673 68.8035H56.6718C55.3022 68.8035 53.989 68.2579 53.0226 67.2875C52.0562 66.317 51.5161 65.0015 51.5218 63.6319V56.758C51.5161 55.3884 52.0562 54.073 53.0226 53.1025C53.989 52.132 55.3022 51.5865 56.6718 51.5865H63.5673C64.9369 51.5865 66.2501 52.132 67.2165 53.1025C68.1829 54.073 68.723 55.3884 68.7173 56.758V63.6319Z" fill="#FF6600"/>
</svg>
