<svg width="86" height="86" viewBox="0 0 86 86" fill="none" xmlns="http://www.w3.org/2000/svg">
<path d="M63.8234 80.6261C63.5036 80.7954 63.5305 80.8492 63.8369 80.6933C63.9363 80.653 64.0196 80.5965 64.0922 80.5294C64.0922 80.4729 64.0922 80.4729 63.8234 80.6261ZM64.4684 80.2767C64.3152 80.4031 64.3152 80.4031 64.498 80.3197C64.5947 80.2633 64.6807 80.2096 64.6807 80.1934C64.6807 80.1209 64.6377 80.137 64.4684 80.2767ZM64.8877 80.0241C64.7345 80.1504 64.7345 80.1504 64.9172 80.0671C65.0167 80.0107 65.1 79.9516 65.1 79.9381C65.1 79.8709 65.057 79.8844 64.8877 80.0241ZM65.3123 79.7742C65.1591 79.9005 65.1591 79.9005 65.3365 79.8145C65.4359 79.7608 65.5192 79.7043 65.5192 79.6882C65.5192 79.621 65.4762 79.6345 65.3123 79.7742ZM65.8847 79.3953C65.5918 79.5915 65.4896 79.7178 65.7584 79.578C65.9384 79.4678 66.2448 79.226 66.1911 79.226C66.0755 79.269 65.9788 79.3415 65.882 79.3953H65.8847ZM40.1849 0.0197526C39.9888 0.0331897 39.4002 0.086938 38.8842 0.129937C26.6619 1.23715 15.2269 7.81595 7.97894 17.9502C3.972 23.5051 1.37058 29.9576 0.389675 36.7325C0.0429987 39.0975 0 39.7962 0 43.0023C0 46.2057 0.0429987 46.8937 0.389675 49.2586C2.73041 65.4126 14.2218 78.9734 29.7981 83.9988C32.601 84.8937 35.5384 85.5118 38.8842 85.8908C40.1849 86.0305 45.8097 86.0305 47.1104 85.8908C52.8937 85.2458 57.7768 83.8188 62.6087 81.3544C63.3505 80.9782 63.4902 80.8787 63.3908 80.7954C61.0258 77.6753 58.7039 74.5526 56.3793 71.4029L49.5076 62.1233L40.8998 49.3715C38.0296 45.1038 35.1487 40.847 32.2221 36.6224C32.1926 36.6224 32.1549 42.2901 32.1388 49.2022C32.1092 61.309 32.1092 61.8008 31.9561 62.0802C31.8029 62.4162 31.5503 62.6957 31.2143 62.8515C30.9483 62.9778 30.7091 63.0047 29.438 63.0047H27.9841L27.6051 62.7682C27.3686 62.615 27.1725 62.4027 27.0462 62.1528L26.8634 61.7739L26.8769 44.9211L26.9064 28.0683L27.1725 27.7324C27.3418 27.5255 27.5514 27.3561 27.7879 27.2298C28.1399 27.0605 28.2797 27.0337 29.7336 27.0337C31.4401 27.0337 31.7223 27.1008 32.1711 27.5926C35.6539 32.7847 39.1261 37.9903 42.5418 43.2119C48.1289 51.6826 55.7558 63.2412 59.5048 68.9117L66.3227 79.2287L66.6587 79.0056C69.9346 76.8207 72.915 74.2193 75.4868 71.2524C80.9047 65.0498 84.4198 57.4203 85.6103 49.2774C85.957 46.9125 86 46.2111 86 43.0077C86 39.8016 85.957 39.1163 85.6103 36.7514C83.2696 20.5973 71.7782 7.0366 56.2019 2.00844C53.2888 1.08666 50.2923 0.457801 47.2582 0.135311C46.4439 0.0520016 40.8863 -0.0474328 40.1876 0.0251274L40.1849 0.0197526ZM57.7794 26.0259C58.1852 26.2194 58.4916 26.5849 58.6314 27.0041C58.7039 27.2298 58.7174 31.9033 58.7039 42.4299L58.6744 57.5439L56.0165 53.459L53.3425 49.3715V38.3987C53.3425 31.2852 53.3721 27.297 53.4097 27.1008C53.536 26.652 53.8424 26.2758 54.2509 26.0393C54.5841 25.87 54.7131 25.8566 56.0434 25.8566C57.2876 25.8566 57.5 25.87 57.7794 26.0259Z" fill="white"/>
</svg>
