<svg width="86" height="102" viewBox="0 0 86 102" fill="none" xmlns="http://www.w3.org/2000/svg">
<path d="M21.5 42.2C24.3667 30.7333 31.5333 25 43 25C60.2 25 62.35 37.9 70.95 40.05C76.6833 41.4833 81.7 39.3333 86 33.6C83.1333 45.0667 75.9667 50.8 64.5 50.8C47.3 50.8 45.15 37.9 36.55 35.75C30.8167 34.3167 25.8 36.4667 21.5 42.2ZM0 68C2.86667 56.5333 10.0333 50.8 21.5 50.8C38.7 50.8 40.85 63.7 49.45 65.85C55.1833 67.2833 60.2 65.1333 64.5 59.4C61.6333 70.8667 54.4667 76.6 43 76.6C25.8 76.6 23.65 63.7 15.05 61.55C9.31667 60.1167 4.3 62.2667 0 68Z" fill="#44A8B3"/>
</svg>
