<svg width="86" height="102" viewBox="0 0 86 102" fill="none" xmlns="http://www.w3.org/2000/svg">
<path d="M46.8783 4.9992C44.5305 3.66394 41.4696 3.66993 39.1198 4.9992C27.351 11.5671 15.582 18.137 3.81099 24.7018C1.52051 25.9204 -0.0243518 28.4077 0.000290577 30.9894V70.6734C-0.0162479 73.3055 1.60826 75.8168 3.95782 77.0187C7.33881 78.8376 10.6236 80.8412 14.0658 82.5391C18.0418 84.5149 23.0164 84.9518 27.0411 82.8913C30.3081 81.1837 31.7592 77.3856 31.7549 73.8952C31.7813 60.7985 31.7592 47.7015 31.7651 34.6046C31.8428 34.0226 31.4105 33.4004 30.7827 33.4144C29.2787 33.3904 27.7727 33.4004 26.2687 33.4104C25.7005 33.3562 25.1458 33.8336 25.1888 34.4112C25.1686 47.4236 25.1927 60.44 25.1765 73.4543C25.2093 75.2545 24.0066 76.9845 22.291 77.5926C18.3286 78.9972 7.01886 71.5711 7.01886 71.5711C6.60381 71.3768 6.34025 70.9216 6.38093 70.4693C6.38093 57.3767 6.38295 44.2837 6.38093 31.1931C6.32388 30.6653 6.64555 30.19 7.12483 29.9745C18.8549 23.4453 30.579 16.8998 42.3091 10.3666C42.7166 10.0916 43.2845 10.0924 43.691 10.3686C55.4211 16.8998 67.1472 23.4393 78.8793 29.9688C79.3602 30.1839 79.6681 30.6673 79.6192 31.1931C79.6172 44.2837 79.6232 57.3767 79.6152 70.4677C79.65 70.9309 79.4131 71.3798 78.9854 71.5832C67.3648 78.077 55.6119 84.3614 44.0965 91.0438C43.5941 91.3352 43.0248 91.6653 42.4619 91.3442C39.4337 89.6504 36.4422 87.8906 33.4239 86.1804C33.0958 85.9733 32.678 85.8843 32.3357 86.1161C30.9825 86.8373 29.7097 87.4213 28.1558 88.0435C25.9733 88.9172 26.322 89.2744 28.2904 90.4341C31.82 92.4541 35.3556 94.466 38.8853 96.488C41.2089 97.9544 44.3311 98.0588 46.7295 96.7038C58.5002 90.1441 70.2673 83.5767 82.0404 77.017C84.3836 75.8085 86.0163 73.3071 85.9997 70.673V30.9894C86.0226 28.4601 84.5367 26.0171 82.3153 24.7805C70.5055 18.1806 58.6901 11.5951 46.8783 4.9992Z" fill="#8CC84B"/>
<path d="M64.6377 34.7964C60.0178 32.2971 54.5217 32.164 49.3879 32.4908C45.6789 32.8614 41.7782 33.8963 39.0761 36.585C36.3046 39.2877 35.7013 43.6521 37.0178 47.1803C37.9611 49.6736 40.3357 51.2949 42.7913 52.1525C45.9545 53.2817 49.2767 53.631 52.6 53.9802C55.6311 54.2986 58.6633 54.6174 61.5767 55.5282C62.7668 55.9269 64.1528 56.537 64.5173 57.8465C64.854 59.3972 64.4849 61.1998 63.2398 62.2772C59.2852 65.4425 48.2844 64.9575 44.377 62.4662C42.7973 61.4049 42.1166 59.526 41.8397 57.7355C41.8089 57.1776 41.3647 56.6658 40.7657 56.7083C39.2657 56.6902 37.7656 56.6942 36.2656 56.7063C35.7423 56.6618 35.1982 57.0384 35.1694 57.5786C34.8611 65.7793 42.3091 69.3544 49.2966 70.1414C53.2886 70.5261 57.3683 70.504 61.2995 69.6377C64.2546 68.9573 67.2177 67.7043 69.2519 65.4027C71.7605 62.6053 72.2536 58.4406 71.1287 54.9562C70.2687 52.3562 67.8107 50.6884 65.2982 49.8305C61.8814 48.6457 57.8321 48.0088 54.7374 47.7108C50.2393 47.2776 44.894 47.4546 43.6209 44.4656C43.1132 42.9005 43.5452 40.9571 44.9675 39.9944C48.7306 37.4132 56.3896 37.756 60.2867 39.6844C62.0762 40.5905 63.1132 42.4516 63.5412 44.3304C63.6206 44.8823 63.9877 45.4583 64.6195 45.4343C66.1093 45.4644 67.5991 45.4423 69.0885 45.4443C69.6002 45.4804 70.1605 45.1884 70.2604 44.6586C70.1972 40.7317 68.2143 36.7117 64.6377 34.7964Z" fill="#8CC84B"/>
</svg>
