<svg width="86" height="102" viewBox="0 0 86 102" fill="none" xmlns="http://www.w3.org/2000/svg">
<path d="M43 94C66.7482 94 86 74.7482 86 51C86 27.2518 66.7482 8 43 8C19.2518 8 0 27.2518 0 51C0 74.7482 19.2518 94 43 94Z" fill="#13AA52"/>
<path d="M54.4947 45.744C51.7787 33.7569 45.3597 29.8155 44.6685 28.3097C43.9127 27.2473 43.1467 25.3576 43.1467 25.3576C43.1341 25.3257 43.114 25.2694 43.0905 25.2148C43.0124 26.2772 42.9721 26.6871 41.9676 27.7587C40.4122 28.9748 32.432 35.6709 31.7828 49.2898C31.1773 61.9916 40.9581 69.5603 42.2809 70.5252L42.4312 70.6319V70.6227C42.4396 70.6865 42.8511 73.6461 43.14 76.7821H44.1764C44.4196 74.5654 44.784 72.3636 45.2682 70.1868L45.3522 70.1322C45.9439 69.708 46.508 69.2465 47.0411 68.7507L47.1016 68.6961C49.9134 66.0984 54.9684 60.0902 54.9188 50.5109C54.9084 48.913 54.7665 47.3187 54.4947 45.744ZM43.03 63.3538C43.03 63.3538 43.03 45.5391 43.6179 45.5424C44.0765 45.5424 44.6702 68.5214 44.6702 68.5214C43.8539 68.4231 43.03 64.7396 43.03 63.3538Z" fill="white"/>
</svg>
