<svg width="86" height="102" viewBox="0 0 86 102" fill="none" xmlns="http://www.w3.org/2000/svg">
<path d="M85.7724 60.1118C85.2556 58.5465 83.9015 57.4561 82.1503 57.1943C81.3247 57.071 80.379 57.1236 79.2601 57.3544C77.3098 57.7567 75.8628 57.9098 74.8068 57.9397C78.7927 51.2098 82.0339 43.5352 83.8997 36.311C86.9168 24.6299 85.3045 19.3084 83.4205 16.9012C78.4345 10.5302 71.1599 7.10745 62.3833 7.00253C57.7019 6.94539 53.5917 7.86977 51.4478 8.53434C49.4515 8.18234 47.3049 7.98564 45.0526 7.94921C40.8313 7.88191 37.1011 8.80211 33.9139 10.6935C32.1489 10.097 29.3172 9.25584 26.0468 8.71889C18.3547 7.45606 12.1553 8.44017 7.62083 11.6435C2.12989 15.5222 -0.415694 22.2611 0.0551571 31.6731C0.204476 34.6615 1.87625 43.7534 4.50824 52.3763C6.02093 57.3323 7.63397 61.4481 9.30256 64.61C11.6688 69.0938 14.2006 71.7343 17.043 72.6824C18.6364 73.2134 21.531 73.5849 24.5757 71.0497C24.9615 71.5167 25.4762 71.9812 26.1596 72.4124C27.0273 72.9597 28.0884 73.4069 29.148 73.6719C32.9672 74.6267 36.5444 74.3878 39.5963 73.0497C39.615 73.5925 39.6296 74.1111 39.6419 74.5589C39.6622 75.2853 39.6821 75.9975 39.7088 76.6634C39.8896 81.1673 40.196 84.6691 41.1038 87.1191C41.1536 87.2541 41.2207 87.4594 41.2916 87.677C41.7443 89.0639 42.5019 91.3853 44.4285 93.2036C46.424 95.0868 48.8373 95.6645 51.0477 95.6643C52.1562 95.6643 53.214 95.519 54.1415 95.3201C57.4487 94.6115 61.2043 93.5317 63.9211 89.6633C66.4896 86.0062 67.7383 80.4981 67.9643 71.819C67.9935 71.5737 68.0206 71.3393 68.0467 71.116C68.0642 70.9652 68.0821 70.8112 68.1003 70.6575L68.7055 70.7106L68.8614 70.7212C72.2296 70.8747 76.348 70.1603 78.8773 68.9855C80.876 68.0579 87.2803 64.6769 85.7724 60.1118Z" fill="black"/>
<path d="M80.0126 61C69.9979 63.0658 69.3094 59.6751 69.3094 59.6751C79.8833 43.9851 84.3036 24.0689 80.489 19.1946C70.0825 5.89824 52.0683 12.1865 51.7676 12.3498L51.6709 12.3671C49.6923 11.9564 47.478 11.7117 44.9894 11.6711C40.4579 11.5968 37.0205 12.8591 34.4122 14.8371C34.4122 14.8371 2.27669 1.59846 3.77127 31.4871C4.08921 37.8457 12.8849 79.5989 23.376 66.9875C27.2105 62.3759 30.9154 58.4767 30.9154 58.4767C32.7556 59.6991 34.9586 60.3227 37.268 60.0987L37.4474 59.9464C37.3917 60.519 37.4171 61.079 37.5193 61.742C34.8166 64.7616 35.6108 65.2918 30.208 66.4039C24.7412 67.5306 27.9527 69.5365 30.0496 70.0607C32.5916 70.6964 38.4725 71.5969 42.4462 66.0342L42.2877 66.6689C43.3467 67.5171 44.0903 72.186 43.9656 76.4183C43.841 80.6507 43.7578 83.5565 44.5922 85.8261C45.4266 88.0958 46.2582 93.2025 53.3606 91.6806C59.2953 90.4088 62.3707 87.1131 62.7985 81.6155C63.1021 77.7072 63.7892 78.2849 63.8326 74.7907L64.3837 73.1364C65.0192 67.8384 64.4846 66.1292 68.1409 66.9242L69.0295 67.0022C71.7206 67.1247 75.2427 66.5694 77.3099 65.6086C81.7612 63.5428 84.4011 60.0937 80.0122 61H80.0126Z" fill="#336791"/>
<path d="M36.294 34.331C35.3917 34.2054 34.5742 34.3216 34.1607 34.6346C33.928 34.8108 33.8561 35.0149 33.8368 35.1554C33.7848 35.5275 34.0457 35.9389 34.2057 36.1511C34.6589 36.7518 35.321 37.1647 35.9764 37.2557C36.0714 37.2688 36.1658 37.2752 36.2598 37.2752C37.3528 37.2752 38.3462 36.4243 38.4338 35.7961C38.5433 35.0095 37.4013 34.4851 36.294 34.331Z" fill="white"/>
<path d="M66.1917 34.3555C66.1057 33.7389 65.0081 33.5631 63.9668 33.7079C62.9272 33.8528 61.9188 34.3221 62.003 34.94C62.0707 35.4207 62.9381 36.2411 63.9654 36.2409C64.052 36.2409 64.1396 36.2351 64.2278 36.2228C64.9135 36.1278 65.4166 35.6924 65.6555 35.4414C66.0196 35.0591 66.2301 34.6327 66.1917 34.3555Z" fill="white"/>
<path d="M83.3463 60.7664C82.9644 59.6116 81.7355 59.2399 79.6934 59.6618C73.6302 60.9131 71.4589 60.0463 70.7458 59.5213C75.4587 52.3416 79.3356 43.6634 81.4271 35.5662C82.4179 31.7307 82.9652 28.1687 83.0098 25.2656C83.0592 22.0785 82.5167 19.737 81.3972 18.3065C76.884 12.5396 70.2604 9.44636 62.2424 9.36135C56.7303 9.29943 52.0732 10.7102 51.1703 11.1068C49.269 10.6339 47.1963 10.3437 44.94 10.3066C40.8018 10.2397 37.2252 11.2304 34.2637 13.2496C32.9773 12.771 29.6529 11.6298 25.5877 10.975C18.5589 9.84315 12.9738 10.7006 8.98801 13.5244C4.23211 16.8938 2.03653 22.9167 2.46199 31.4255C2.60513 34.2884 4.23609 43.0948 6.81034 51.5287C10.1987 62.6291 13.8817 68.9132 17.7572 70.2057C18.2107 70.357 18.7339 70.4629 19.3105 70.4629C20.7243 70.4629 22.4573 69.8256 24.2607 67.6577C27.256 64.0542 30.0527 61.0346 31.0836 59.9374C32.607 60.7552 34.2804 61.2118 35.9924 61.2575C35.9954 61.3023 35.9999 61.3471 36.0039 61.3917C35.6605 61.7991 35.3788 62.156 35.1387 62.4608C33.9527 63.9664 33.7058 64.2798 29.888 65.066C28.8022 65.2899 25.9176 65.8844 25.8755 67.9062C25.8296 70.1151 29.2848 71.0429 29.6786 71.1412C31.0505 71.4847 32.3721 71.6541 33.6325 71.6541C36.6982 71.6539 39.3956 70.6465 41.5516 68.6972C41.4851 76.5723 41.8136 84.3322 42.7591 86.6967C43.5334 88.632 45.4253 93.3624 51.4015 93.362C52.2781 93.362 53.2435 93.2601 54.3052 93.0325C60.542 91.6952 63.2502 88.9388 64.298 82.8618C64.8587 79.614 65.8209 71.8582 66.2732 67.6981C67.2282 67.996 68.4578 68.1324 69.787 68.1322C72.5591 68.1322 75.7577 67.5433 77.7638 66.6121C80.0171 65.5657 84.0837 62.9974 83.3463 60.7664ZM68.4939 32.6547C68.4732 33.8829 68.3041 34.9978 68.125 36.1617C67.9322 37.4133 67.7327 38.7074 67.6826 40.2785C67.633 41.8073 67.8239 43.3968 68.0087 44.9338C68.3818 48.0385 68.7646 51.2349 67.2824 54.3889C67.052 53.9798 66.8297 53.5334 66.6258 53.039C66.4416 52.5925 66.0417 51.8752 65.488 50.8823C63.333 47.0179 58.2868 37.9684 60.8701 34.2757C61.6394 33.1763 63.592 32.0464 68.4939 32.6547ZM62.5524 11.8484C69.7364 12.0071 75.4191 14.6946 79.4427 19.836C82.5286 23.7796 79.1305 41.7237 69.2932 57.204C69.1961 57.0806 69.0971 56.956 68.9948 56.8282C68.954 56.777 68.9124 56.725 68.8704 56.6725C71.4124 52.4742 70.9152 48.3206 70.4728 44.6378C70.2911 43.1265 70.1195 41.699 70.1631 40.3583C70.2082 38.9368 70.3962 37.7182 70.5778 36.5395C70.8013 35.087 71.0285 33.5842 70.9658 31.8125C71.0126 31.6268 71.0315 31.4072 71.007 31.1465C70.8469 29.4475 68.9074 24.3633 64.9538 19.7609C62.7915 17.244 59.6377 14.427 55.3317 12.5271C57.1839 12.1433 59.7167 11.7853 62.5524 11.8484ZM22.3524 66.071C20.3657 68.4597 18.9935 68.002 18.5424 67.8517C15.6024 66.8709 12.1914 60.6575 9.18391 50.8042C6.58159 42.2785 5.06073 33.7055 4.94048 31.3014C4.56041 23.6985 6.4034 18.3997 10.4185 15.5523C16.9527 10.9184 27.6956 13.692 32.0123 15.0988C31.9502 15.1599 31.8857 15.2172 31.8242 15.2793C24.7407 22.4333 24.9088 34.6559 24.9261 35.4029C24.9255 35.6912 24.9496 36.0993 24.9828 36.6608C25.1047 38.7164 25.3314 42.5425 24.7256 46.8756C24.1624 50.902 25.4035 54.843 28.1303 57.688C28.4126 57.9825 28.7072 58.259 29.0116 58.5192C27.7978 59.8191 25.16 62.6934 22.3524 66.071ZM29.9221 55.9709C27.7243 53.6779 26.7263 50.4883 27.1834 47.2192C27.8233 42.6419 27.5869 38.6555 27.4601 36.5139C27.4424 36.2142 27.4267 35.9516 27.4173 35.7444C28.4522 34.8269 33.2477 32.2573 36.6675 33.0409C38.2284 33.3985 39.179 34.461 39.5744 36.2891C41.6207 45.7525 39.8454 49.6969 38.4189 52.8664C38.1249 53.5195 37.8471 54.1366 37.6098 54.7753L37.426 55.2689C36.9606 56.517 36.5275 57.6773 36.2592 58.7793C33.923 58.7721 31.6502 57.7742 29.9221 55.9709ZM30.2806 68.7336C29.5986 68.5632 28.985 68.2672 28.625 68.0217C28.9256 67.8801 29.4608 67.6878 30.3888 67.4967C34.8801 66.5719 35.5735 65.9195 37.0882 63.9962C37.4356 63.5555 37.8292 63.0555 38.3743 62.4467L38.3749 62.4459C39.187 61.5369 39.5583 61.691 40.2318 61.9703C40.7777 62.1963 41.3093 62.8803 41.5249 63.6333C41.6269 63.9889 41.7415 64.664 41.3667 65.189C38.2025 69.6192 33.5919 69.5622 30.2806 68.7336ZM53.785 90.606C48.2907 91.7832 46.3453 88.9798 45.0634 85.7751C44.236 83.7059 43.8294 74.3759 44.1179 64.0727C44.1217 63.9355 44.1022 63.8031 44.0643 63.6787C44.0315 63.4384 43.9809 63.1953 43.9109 62.9506C43.4816 61.4515 42.4362 60.1974 41.1819 59.6776C40.6836 59.4711 39.7687 59.0922 38.6696 59.3733C38.9041 58.4075 39.3106 57.3171 39.7512 56.1361L39.9362 55.6392C40.1444 55.0791 40.4054 54.499 40.6818 53.885C42.1746 50.5685 44.219 46.0262 42.0002 35.7645C41.169 31.921 38.3936 30.0442 34.1862 30.48C31.6637 30.741 29.3563 31.7587 28.2053 32.3423C27.9578 32.4677 27.7315 32.5888 27.52 32.7068C27.8412 28.8341 29.055 21.5969 33.5951 17.018C36.4535 14.1352 40.2605 12.7115 44.8989 12.7881C54.0382 12.9378 59.8989 17.628 63.2064 21.5364C66.0564 24.9044 67.5997 28.2969 68.2157 30.1266C63.5839 29.6557 60.4337 30.5702 58.8365 32.8532C55.3624 37.8193 60.7373 47.4585 63.3205 52.091C63.7941 52.9401 64.2031 53.6737 64.3317 53.9855C65.1728 56.0242 66.2619 57.3852 67.057 58.3789C67.3007 58.6833 67.5372 58.9785 67.717 59.2364C66.3142 59.6409 63.7943 60.5753 64.0239 65.2461C63.8387 67.59 62.5215 78.5632 61.8526 82.4401C60.9694 87.5619 59.0846 89.4698 53.785 90.606ZM76.7187 64.3612C75.2843 65.0271 72.8836 65.5267 70.6031 65.6338C68.0841 65.7518 66.802 65.3517 66.5004 65.1056C66.3586 62.1949 67.4423 61.8906 68.5888 61.5687C68.769 61.518 68.9448 61.4688 69.1144 61.4094C69.22 61.4953 69.3354 61.5805 69.4619 61.6639C71.4864 63.0002 75.0975 63.1443 80.1953 62.0921C80.214 62.0882 80.2327 62.0846 80.2512 62.0808C79.5638 62.7236 78.3871 63.5865 76.7187 64.3612Z" fill="white"/>
</svg>
