<svg width="86" height="103" viewBox="0 0 86 103" fill="none" xmlns="http://www.w3.org/2000/svg">
<path d="M6 82.3839L6.61972 81.5199L35.8558 26.0589L35.9177 25.472L23.0313 1.2666C22.7954 0.823965 22.4262 0.466716 21.9761 0.245394C21.526 0.0240727 21.0177 -0.0501162 20.5231 0.0333233C20.0285 0.116763 19.5727 0.353606 19.2201 0.710347C18.8675 1.06709 18.636 1.52566 18.5584 2.0212L6 82.3839Z" fill="#FFC24A"/>
<path d="M6.36523 81.729L6.83184 80.8176L35.7653 25.9326L22.9117 1.63239C22.6997 1.20979 22.3565 0.867247 21.9335 0.65608C21.5105 0.444913 21.0305 0.37649 20.5653 0.461064C20.1002 0.545637 19.6749 0.778654 19.3533 1.1252C19.0317 1.47175 18.8311 1.91317 18.7814 2.38334L6.36523 81.729Z" fill="#FFA712"/>
<path d="M45.3132 43.7816L54.9079 33.939L45.3095 15.6355C45.0983 15.2416 44.7842 14.9123 44.4006 14.6828C44.017 14.4533 43.5784 14.332 43.1314 14.332C42.6844 14.332 42.2458 14.4533 41.8622 14.6828C41.4787 14.9123 41.1645 15.2416 40.9533 15.6355L35.8242 25.4124V26.2472L45.3132 43.7816Z" fill="#F4BD62"/>
<path d="M45.1408 43.3798L54.4694 33.8288L45.1408 16.0393C44.9881 15.6542 44.7273 15.3216 44.3898 15.0814C44.0523 14.8412 43.6526 14.7038 43.2387 14.6856C42.8249 14.6675 42.4146 14.7695 42.0575 14.9793C41.7003 15.1891 41.4114 15.4977 41.2257 15.868L36.0711 25.8163L35.918 26.323L45.1408 43.3798Z" fill="#FFA50E"/>
<path d="M6.00781 82.3877L6.28851 82.1033L7.30557 81.6914L44.7073 44.4282L45.1812 43.1377L35.8527 25.3555L6.00781 82.3877Z" fill="#F6820C"/>
<path d="M46.5076 101.18L80.366 82.3004L70.6912 22.7675C70.6218 22.3478 70.4382 21.9554 70.1604 21.6332C69.8826 21.3111 69.5214 21.0717 69.1165 20.9414C68.7116 20.8111 68.2786 20.7948 67.8651 20.8945C67.4516 20.9941 67.0735 21.2058 66.7724 21.5062L6 82.3843L39.6579 101.176C40.7043 101.76 41.8827 102.067 43.0809 102.067C44.2792 102.067 45.4576 101.76 46.504 101.176" fill="#FDE068"/>
<path d="M80.0569 82.1427L70.4622 23.0581C70.4453 22.6567 70.3096 22.2694 70.0724 21.9451C69.8353 21.6208 69.5072 21.3742 69.1298 21.2364C68.7524 21.0986 68.3426 21.0759 67.9523 21.1711C67.562 21.2664 67.2087 21.4752 66.9371 21.7713L6.36523 82.2703L39.6513 100.862C40.6894 101.441 41.8583 101.745 43.047 101.745C44.2357 101.745 45.4046 101.441 46.4427 100.862L80.0569 82.1427Z" fill="#FCCA3F"/>
<path d="M46.5076 100.612C45.4612 101.196 44.2829 101.503 43.0846 101.503C41.8863 101.503 40.708 101.196 39.6616 100.612L6.27705 82.1009L6 82.3852L39.6579 101.177C40.7043 101.761 41.8827 102.068 43.0809 102.068C44.2792 102.068 45.4576 101.761 46.504 101.177L80.366 82.3014L80.2822 81.791L46.5076 100.612Z" fill="#EEAB37"/>
</svg>
