<svg width="86" height="102" viewBox="0 0 86 102" fill="none" xmlns="http://www.w3.org/2000/svg">
<path fill-rule="evenodd" clip-rule="evenodd" d="M42.998 51C42.998 41.6113 50.6094 34 59.9981 34C69.3868 34 76.9981 41.6113 76.9981 51C76.9981 60.3887 69.3868 68 59.9981 68C50.6094 68 42.998 60.3887 42.998 51Z" fill="#1ABCFE"/>
<path fill-rule="evenodd" clip-rule="evenodd" d="M9 85C9 75.6113 16.6112 68 26 68H43V85C43 94.3887 35.3887 102 26 102C16.6112 102 9 94.3887 9 85Z" fill="#0ACF83"/>
<path fill-rule="evenodd" clip-rule="evenodd" d="M42.998 0V34H59.9981C69.3868 34 76.9981 26.3887 76.9981 17C76.9981 7.61117 69.3868 0 59.9981 0H42.998Z" fill="#FF7262"/>
<path fill-rule="evenodd" clip-rule="evenodd" d="M9 17C9 26.3887 16.6112 34 26 34H43V0H26C16.6112 0 9 7.61117 9 17Z" fill="#F24E1E"/>
<path fill-rule="evenodd" clip-rule="evenodd" d="M9 51C9 60.3887 16.6112 68 26 68H43V34H26C16.6112 34 9 41.6113 9 51Z" fill="#A259FF"/>
</svg>
