<svg width="24" height="22" viewBox="0 0 24 22" fill="none" xmlns="http://www.w3.org/2000/svg">
<path d="M11.6444 18.7758C12.0681 18.5201 12.5986 18.5201 13.0223 18.7758L17.868 21.7005C18.8778 22.31 20.1234 21.4046 19.8555 20.2561L18.5695 14.7437C18.4571 14.2617 18.6209 13.7571 18.9949 13.4331L23.2781 9.72252C24.1696 8.95024 23.6931 7.48589 22.5178 7.38619L16.8812 6.90797C16.3884 6.86616 15.9592 6.55505 15.7662 6.09971L13.561 0.896493C13.1015 -0.187544 11.5652 -0.187544 11.1057 0.896493L8.90042 6.09971C8.70744 6.55505 8.27828 6.86616 7.78551 6.90797L2.14884 7.38619C0.973608 7.48589 0.497062 8.95024 1.38853 9.72251L5.67173 13.4331C6.04581 13.7571 6.20961 14.2617 6.09717 14.7437L4.81122 20.2561C4.54327 21.4046 5.78891 22.31 6.79867 21.7005L11.6444 18.7758Z" fill="#FF531F"/>
</svg>
