<svg width="34" height="34" viewBox="0 0 34 34" fill="none" xmlns="http://www.w3.org/2000/svg">
<path d="M0 33.3758L2.35553 24.8134C0.908188 22.3015 0.148122 19.4527 0.151843 16.5537C0.135089 7.41858 7.55367 0 16.6712 0C21.0963 0 25.2513 1.71561 28.3798 4.84516C29.9219 6.37921 31.1441 8.20403 31.9758 10.2139C32.8075 12.2237 33.2321 14.3786 33.2249 16.5537C33.2249 25.6713 25.8063 33.0899 16.6879 33.0899C13.9124 33.0899 11.2038 32.3997 8.78123 31.0715L0 33.3758ZM9.16872 28.0939L9.67355 28.3964C11.7925 29.6504 14.2091 30.3125 16.6712 30.3142C24.2415 30.3142 30.4158 24.141 30.4158 16.5696C30.4158 12.9027 28.9862 9.4379 26.3949 6.84771C25.1208 5.56629 23.6055 4.54972 21.9367 3.85659C20.2678 3.16344 18.4782 2.80744 16.6712 2.80909C9.08393 2.81007 2.91164 8.98336 2.91164 16.5547C2.91164 19.145 3.63534 21.6859 5.01474 23.8729L5.3342 24.3944L3.93804 29.4741L9.16872 28.0939Z" fill="#B9FD50"/>
<path fill-rule="evenodd" clip-rule="evenodd" d="M12.5497 9.62313C12.247 8.93294 11.9108 8.91617 11.6248 8.91617C11.3724 8.89941 11.1022 8.89941 10.8163 8.89941C10.5481 8.89941 10.0936 8.99999 9.70708 9.42099C9.31958 9.84103 8.26062 10.8339 8.26062 12.869C8.26062 14.9051 9.7406 16.8732 9.94273 17.1423C10.1439 17.4115 12.8021 21.7173 17.0083 23.3836C20.5066 24.763 21.2136 24.4938 21.9708 24.4091C22.7271 24.3253 24.4102 23.4171 24.7632 22.4411C25.0994 21.4827 25.0994 20.6416 24.9988 20.4729C24.8982 20.3053 24.6113 20.2037 24.2081 19.9849C23.7871 19.7837 21.7687 18.7741 21.3822 18.6391C20.9947 18.5049 20.7255 18.4378 20.4563 18.8412C20.1872 19.2622 19.3963 20.187 19.145 20.4562C18.9084 20.7254 18.6569 20.7589 18.2527 20.5568C17.8327 20.3556 16.5035 19.9179 14.922 18.5049C13.6934 17.4105 12.8691 16.0488 12.6167 15.6456C12.3821 15.2246 12.5832 15.0056 12.8021 14.8035C12.9875 14.6191 13.2231 14.3164 13.4252 14.0808C13.6263 13.8441 13.6934 13.6597 13.8453 13.3906C13.9794 13.1214 13.9124 12.869 13.8117 12.6679C13.7103 12.4825 12.9204 10.4474 12.5497 9.62313Z" fill="#B9FD50"/>
</svg>
